<svg xmlns="http://www.w3.org/2000/svg" xmlns:xlink="http://www.w3.org/1999/xlink" width="120" zoomAndPan="magnify" viewBox="0 0 90 44.999999" height="60" preserveAspectRatio="xMidYMid meet" version="1.0"><defs><clipPath id="67661dac15"><path d="M 26 0.75 L 41 0.75 L 41 8 L 26 8 Z M 26 0.75 " clip-rule="nonzero"/></clipPath><clipPath id="c2df02f4da"><path d="M 7.140625 4 L 82.890625 4 L 82.890625 42 L 7.140625 42 Z M 7.140625 4 " clip-rule="nonzero"/></clipPath></defs><g clip-path="url(#67661dac15)"><path fill="#000000" d="M 26.632812 1.894531 C 26.828125 1.363281 27.5 1.121094 28.140625 1.351562 C 28.777344 1.582031 29.136719 2.199219 28.941406 2.730469 C 28.75 3.261719 28.074219 3.503906 27.4375 3.269531 C 26.796875 3.039062 26.4375 2.421875 26.632812 1.894531 Z M 27.367188 3.597656 C 28.167969 3.855469 30.878906 4.445312 31.050781 4.675781 C 31.21875 4.902344 31.695312 5.515625 31.695312 5.515625 C 31.695312 5.515625 39.535156 7.75 40.109375 7.597656 C 40.109375 7.597656 29.4375 3.394531 29.101562 3.210938 C 29.203125 3.09375 29.285156 2.960938 29.332031 2.808594 C 29.566406 2.101562 29.0625 1.300781 28.207031 1.027344 C 27.351562 0.75 26.472656 1.101562 26.242188 1.8125 C 26.007812 2.523438 26.515625 3.320312 27.367188 3.597656 " fill-opacity="1" fill-rule="nonzero"/></g><path fill="#000000" d="M 32.179688 4.363281 C 34.285156 3.765625 39.636719 2.277344 40.09375 2.394531 C 40.09375 2.394531 36.703125 3.75 33.6875 4.964844 C 33.164062 4.757812 32.65625 4.554688 32.179688 4.363281 " fill-opacity="1" fill-rule="nonzero"/><path fill="#000000" d="M 27.441406 6.785156 C 28.078125 6.550781 28.753906 6.789062 28.949219 7.320312 C 29.148438 7.847656 28.789062 8.46875 28.152344 8.703125 C 27.515625 8.933594 26.839844 8.695312 26.644531 8.167969 C 26.449219 7.636719 26.804688 7.019531 27.441406 6.785156 Z M 26.253906 8.25 C 26.488281 8.957031 27.371094 9.304688 28.222656 9.027344 C 29.074219 8.746094 29.578125 7.945312 29.339844 7.234375 C 29.292969 7.085938 29.210938 6.953125 29.109375 6.835938 C 29.214844 6.777344 30.390625 6.296875 31.933594 5.671875 C 31.738281 5.617188 31.628906 5.585938 31.628906 5.585938 C 31.628906 5.585938 31.433594 5.335938 31.25 5.09375 C 31.167969 5.199219 31.09375 5.296875 31.046875 5.363281 C 30.878906 5.59375 28.167969 6.195312 27.371094 6.460938 C 26.519531 6.742188 26.019531 7.542969 26.253906 8.25 " fill-opacity="1" fill-rule="nonzero"/><path fill="#ffffff" d="M 31.949219 5.0625 C 31.957031 5.191406 32.066406 5.289062 32.199219 5.28125 C 32.328125 5.273438 32.425781 5.164062 32.417969 5.035156 C 32.410156 4.90625 32.300781 4.808594 32.167969 4.816406 C 32.039062 4.824219 31.941406 4.933594 31.949219 5.0625 Z M 31.882812 5.066406 C 31.871094 4.902344 32 4.757812 32.164062 4.75 C 32.332031 4.738281 32.476562 4.867188 32.484375 5.03125 C 32.496094 5.199219 32.367188 5.339844 32.203125 5.347656 C 32.035156 5.359375 31.890625 5.234375 31.882812 5.066406 " fill-opacity="1" fill-rule="nonzero"/><g clip-path="url(#c2df02f4da)"><path fill="#000000" d="M 10.867188 5.257812 L 9.472656 5.257812 C 9.34375 5.257812 9.242188 5.15625 9.242188 5.027344 C 9.242188 4.898438 9.34375 4.796875 9.472656 4.796875 L 10.867188 4.796875 C 10.996094 4.796875 11.097656 4.898438 11.097656 5.027344 C 11.097656 5.15625 10.996094 5.257812 10.867188 5.257812 Z M 13.652344 5.257812 L 12.257812 5.257812 C 12.128906 5.257812 12.027344 5.15625 12.027344 5.027344 C 12.027344 4.898438 12.128906 4.796875 12.257812 4.796875 L 13.652344 4.796875 C 13.78125 4.796875 13.882812 4.898438 13.882812 5.027344 C 13.882812 5.15625 13.78125 5.257812 13.652344 5.257812 Z M 16.4375 5.257812 L 15.042969 5.257812 C 14.914062 5.257812 14.8125 5.15625 14.8125 5.027344 C 14.8125 4.898438 14.914062 4.796875 15.042969 4.796875 L 16.4375 4.796875 C 16.566406 4.796875 16.667969 4.898438 16.667969 5.027344 C 16.667969 5.15625 16.566406 5.257812 16.4375 5.257812 Z M 19.222656 5.257812 L 17.828125 5.257812 C 17.699219 5.257812 17.597656 5.15625 17.597656 5.027344 C 17.597656 4.898438 17.699219 4.796875 17.828125 4.796875 L 19.222656 4.796875 C 19.351562 4.796875 19.453125 4.898438 19.453125 5.027344 C 19.453125 5.15625 19.351562 5.257812 19.222656 5.257812 Z M 22.007812 5.257812 L 20.613281 5.257812 C 20.488281 5.257812 20.382812 5.15625 20.382812 5.027344 C 20.382812 4.898438 20.488281 4.796875 20.613281 4.796875 L 22.007812 4.796875 C 22.136719 4.796875 22.238281 4.898438 22.238281 5.027344 C 22.238281 5.15625 22.136719 5.257812 22.007812 5.257812 Z M 24.792969 5.257812 L 23.398438 5.257812 C 23.273438 5.257812 23.167969 5.15625 23.167969 5.027344 C 23.167969 4.898438 23.273438 4.796875 23.398438 4.796875 L 24.792969 4.796875 C 24.921875 4.796875 25.023438 4.898438 25.023438 5.027344 C 25.023438 5.15625 24.921875 5.257812 24.792969 5.257812 Z M 27.578125 5.257812 L 26.183594 5.257812 C 26.058594 5.257812 25.953125 5.15625 25.953125 5.027344 C 25.953125 4.898438 26.058594 4.796875 26.183594 4.796875 L 27.578125 4.796875 C 27.707031 4.796875 27.808594 4.898438 27.808594 5.027344 C 27.808594 5.15625 27.707031 5.257812 27.578125 5.257812 Z M 30.363281 5.257812 L 28.96875 5.257812 C 28.84375 5.257812 28.738281 5.15625 28.738281 5.027344 C 28.738281 4.898438 28.84375 4.796875 28.96875 4.796875 L 30.363281 4.796875 C 30.492188 4.796875 30.59375 4.898438 30.59375 5.027344 C 30.59375 5.15625 30.492188 5.257812 30.363281 5.257812 Z M 35.933594 5.257812 L 34.539062 5.257812 C 34.414062 5.257812 34.308594 5.15625 34.308594 5.027344 C 34.308594 4.898438 34.414062 4.796875 34.539062 4.796875 L 35.933594 4.796875 C 36.0625 4.796875 36.164062 4.898438 36.164062 5.027344 C 36.164062 5.15625 36.0625 5.257812 35.933594 5.257812 Z M 38.71875 5.257812 L 37.324219 5.257812 C 37.199219 5.257812 37.09375 5.15625 37.09375 5.027344 C 37.09375 4.898438 37.199219 4.796875 37.324219 4.796875 L 38.71875 4.796875 C 38.847656 4.796875 38.949219 4.898438 38.949219 5.027344 C 38.949219 5.15625 38.847656 5.257812 38.71875 5.257812 Z M 41.503906 5.257812 L 40.109375 5.257812 C 39.984375 5.257812 39.878906 5.15625 39.878906 5.027344 C 39.878906 4.898438 39.984375 4.796875 40.109375 4.796875 L 41.503906 4.796875 C 41.632812 4.796875 41.734375 4.898438 41.734375 5.027344 C 41.734375 5.15625 41.632812 5.257812 41.503906 5.257812 Z M 44.289062 5.257812 L 42.894531 5.257812 C 42.769531 5.257812 42.664062 5.15625 42.664062 5.027344 C 42.664062 4.898438 42.769531 4.796875 42.894531 4.796875 L 44.289062 4.796875 C 44.417969 4.796875 44.519531 4.898438 44.519531 5.027344 C 44.519531 5.15625 44.417969 5.257812 44.289062 5.257812 Z M 47.074219 5.257812 L 45.679688 5.257812 C 45.554688 5.257812 45.449219 5.15625 45.449219 5.027344 C 45.449219 4.898438 45.554688 4.796875 45.679688 4.796875 L 47.074219 4.796875 C 47.203125 4.796875 47.304688 4.898438 47.304688 5.027344 C 47.304688 5.15625 47.203125 5.257812 47.074219 5.257812 Z M 49.859375 5.257812 L 48.464844 5.257812 C 48.339844 5.257812 48.234375 5.15625 48.234375 5.027344 C 48.234375 4.898438 48.339844 4.796875 48.464844 4.796875 L 49.859375 4.796875 C 49.988281 4.796875 50.089844 4.898438 50.089844 5.027344 C 50.089844 5.15625 49.988281 5.257812 49.859375 5.257812 Z M 52.644531 5.257812 L 51.253906 5.257812 C 51.125 5.257812 51.019531 5.15625 51.019531 5.027344 C 51.019531 4.898438 51.125 4.796875 51.253906 4.796875 L 52.644531 4.796875 C 52.773438 4.796875 52.875 4.898438 52.875 5.027344 C 52.875 5.15625 52.773438 5.257812 52.644531 5.257812 Z M 55.429688 5.257812 L 54.039062 5.257812 C 53.910156 5.257812 53.804688 5.15625 53.804688 5.027344 C 53.804688 4.898438 53.910156 4.796875 54.039062 4.796875 L 55.429688 4.796875 C 55.558594 4.796875 55.660156 4.898438 55.660156 5.027344 C 55.660156 5.15625 55.558594 5.257812 55.429688 5.257812 Z M 58.214844 5.257812 L 56.824219 5.257812 C 56.695312 5.257812 56.589844 5.15625 56.589844 5.027344 C 56.589844 4.898438 56.695312 4.796875 56.824219 4.796875 L 58.214844 4.796875 C 58.34375 4.796875 58.445312 4.898438 58.445312 5.027344 C 58.445312 5.15625 58.34375 5.257812 58.214844 5.257812 Z M 61 5.257812 L 59.609375 5.257812 C 59.480469 5.257812 59.375 5.15625 59.375 5.027344 C 59.375 4.898438 59.480469 4.796875 59.609375 4.796875 L 61 4.796875 C 61.128906 4.796875 61.234375 4.898438 61.234375 5.027344 C 61.234375 5.15625 61.128906 5.257812 61 5.257812 Z M 63.785156 5.257812 L 62.394531 5.257812 C 62.265625 5.257812 62.160156 5.15625 62.160156 5.027344 C 62.160156 4.898438 62.265625 4.796875 62.394531 4.796875 L 63.785156 4.796875 C 63.914062 4.796875 64.019531 4.898438 64.019531 5.027344 C 64.019531 5.15625 63.914062 5.257812 63.785156 5.257812 Z M 66.570312 5.257812 L 65.179688 5.257812 C 65.050781 5.257812 64.945312 5.15625 64.945312 5.027344 C 64.945312 4.898438 65.050781 4.796875 65.179688 4.796875 L 66.570312 4.796875 C 66.699219 4.796875 66.800781 4.898438 66.800781 5.027344 C 66.800781 5.15625 66.699219 5.257812 66.570312 5.257812 Z M 69.355469 5.257812 L 67.964844 5.257812 C 67.835938 5.257812 67.730469 5.15625 67.730469 5.027344 C 67.730469 4.898438 67.835938 4.796875 67.964844 4.796875 L 69.355469 4.796875 C 69.484375 4.796875 69.585938 4.898438 69.585938 5.027344 C 69.585938 5.15625 69.484375 5.257812 69.355469 5.257812 Z M 72.140625 5.257812 L 70.75 5.257812 C 70.621094 5.257812 70.515625 5.15625 70.515625 5.027344 C 70.515625 4.898438 70.621094 4.796875 70.75 4.796875 L 72.140625 4.796875 C 72.269531 4.796875 72.375 4.898438 72.375 5.027344 C 72.375 5.15625 72.269531 5.257812 72.140625 5.257812 Z M 74.925781 5.257812 L 73.535156 5.257812 C 73.40625 5.257812 73.300781 5.15625 73.300781 5.027344 C 73.300781 4.898438 73.40625 4.796875 73.535156 4.796875 L 74.925781 4.796875 C 75.054688 4.796875 75.160156 4.898438 75.160156 5.027344 C 75.160156 5.15625 75.054688 5.257812 74.925781 5.257812 Z M 77.710938 5.257812 L 76.320312 5.257812 C 76.191406 5.257812 76.085938 5.15625 76.085938 5.027344 C 76.085938 4.898438 76.191406 4.796875 76.320312 4.796875 L 77.710938 4.796875 C 77.839844 4.796875 77.945312 4.898438 77.945312 5.027344 C 77.945312 5.15625 77.839844 5.257812 77.710938 5.257812 Z M 80.496094 5.257812 L 79.105469 5.257812 C 78.976562 5.257812 78.871094 5.15625 78.871094 5.027344 C 78.871094 4.898438 78.976562 4.796875 79.105469 4.796875 L 80.496094 4.796875 C 80.625 4.796875 80.730469 4.898438 80.730469 5.027344 C 80.730469 5.15625 80.625 5.257812 80.496094 5.257812 Z M 82.617188 5.921875 C 82.488281 5.921875 82.382812 5.816406 82.382812 5.691406 L 82.382812 5.257812 L 81.890625 5.257812 C 81.761719 5.257812 81.65625 5.15625 81.65625 5.027344 C 81.65625 4.898438 81.761719 4.796875 81.890625 4.796875 L 82.847656 4.796875 L 82.847656 5.691406 C 82.847656 5.816406 82.746094 5.921875 82.617188 5.921875 Z M 7.414062 5.980469 C 7.285156 5.980469 7.183594 5.878906 7.183594 5.75 L 7.183594 4.796875 L 8.082031 4.796875 C 8.210938 4.796875 8.3125 4.898438 8.3125 5.027344 C 8.3125 5.15625 8.210938 5.257812 8.082031 5.257812 L 7.648438 5.257812 L 7.648438 5.75 C 7.648438 5.878906 7.542969 5.980469 7.414062 5.980469 Z M 82.617188 8.691406 C 82.488281 8.691406 82.382812 8.585938 82.382812 8.460938 L 82.382812 7.074219 C 82.382812 6.949219 82.488281 6.84375 82.617188 6.84375 C 82.746094 6.84375 82.847656 6.949219 82.847656 7.074219 L 82.847656 8.460938 C 82.847656 8.585938 82.746094 8.691406 82.617188 8.691406 Z M 7.414062 8.75 C 7.285156 8.75 7.183594 8.648438 7.183594 8.519531 L 7.183594 7.136719 C 7.183594 7.007812 7.285156 6.90625 7.414062 6.90625 C 7.542969 6.90625 7.648438 7.007812 7.648438 7.136719 L 7.648438 8.519531 C 7.648438 8.648438 7.542969 8.75 7.414062 8.75 Z M 82.617188 11.460938 C 82.488281 11.460938 82.382812 11.359375 82.382812 11.230469 L 82.382812 9.84375 C 82.382812 9.71875 82.488281 9.613281 82.617188 9.613281 C 82.746094 9.613281 82.847656 9.71875 82.847656 9.84375 L 82.847656 11.230469 C 82.847656 11.359375 82.746094 11.460938 82.617188 11.460938 Z M 7.414062 11.523438 C 7.285156 11.523438 7.183594 11.417969 7.183594 11.292969 L 7.183594 9.90625 C 7.183594 9.777344 7.285156 9.675781 7.414062 9.675781 C 7.542969 9.675781 7.648438 9.777344 7.648438 9.90625 L 7.648438 11.292969 C 7.648438 11.417969 7.542969 11.523438 7.414062 11.523438 Z M 82.617188 14.230469 C 82.488281 14.230469 82.382812 14.128906 82.382812 14 L 82.382812 12.617188 C 82.382812 12.488281 82.488281 12.386719 82.617188 12.386719 C 82.746094 12.386719 82.847656 12.488281 82.847656 12.617188 L 82.847656 14 C 82.847656 14.128906 82.746094 14.230469 82.617188 14.230469 Z M 7.414062 14.292969 C 7.285156 14.292969 7.183594 14.191406 7.183594 14.0625 L 7.183594 12.675781 C 7.183594 12.550781 7.285156 12.445312 7.414062 12.445312 C 7.542969 12.445312 7.648438 12.550781 7.648438 12.675781 L 7.648438 14.0625 C 7.648438 14.191406 7.542969 14.292969 7.414062 14.292969 Z M 82.617188 17.003906 C 82.488281 17.003906 82.382812 16.898438 82.382812 16.773438 L 82.382812 15.386719 C 82.382812 15.257812 82.488281 15.15625 82.617188 15.15625 C 82.746094 15.15625 82.847656 15.257812 82.847656 15.386719 L 82.847656 16.773438 C 82.847656 16.898438 82.746094 17.003906 82.617188 17.003906 Z M 7.414062 17.0625 C 7.285156 17.0625 7.183594 16.960938 7.183594 16.832031 L 7.183594 15.449219 C 7.183594 15.320312 7.285156 15.214844 7.414062 15.214844 C 7.542969 15.214844 7.648438 15.320312 7.648438 15.449219 L 7.648438 16.832031 C 7.648438 16.960938 7.542969 17.0625 7.414062 17.0625 Z M 82.617188 19.773438 C 82.488281 19.773438 82.382812 19.671875 82.382812 19.542969 L 82.382812 18.15625 C 82.382812 18.03125 82.488281 17.925781 82.617188 17.925781 C 82.746094 17.925781 82.847656 18.03125 82.847656 18.15625 L 82.847656 19.542969 C 82.847656 19.671875 82.746094 19.773438 82.617188 19.773438 Z M 7.414062 19.835938 C 7.285156 19.835938 7.183594 19.730469 7.183594 19.601562 L 7.183594 18.21875 C 7.183594 18.089844 7.285156 17.988281 7.414062 17.988281 C 7.542969 17.988281 7.648438 18.089844 7.648438 18.21875 L 7.648438 19.601562 C 7.648438 19.730469 7.542969 19.835938 7.414062 19.835938 Z M 82.617188 22.542969 C 82.488281 22.542969 82.382812 22.441406 82.382812 22.3125 L 82.382812 20.929688 C 82.382812 20.800781 82.488281 20.695312 82.617188 20.695312 C 82.746094 20.695312 82.847656 20.800781 82.847656 20.929688 L 82.847656 22.3125 C 82.847656 22.441406 82.746094 22.542969 82.617188 22.542969 Z M 7.414062 22.605469 C 7.285156 22.605469 7.183594 22.5 7.183594 22.375 L 7.183594 20.988281 C 7.183594 20.859375 7.285156 20.757812 7.414062 20.757812 C 7.542969 20.757812 7.648438 20.859375 7.648438 20.988281 L 7.648438 22.375 C 7.648438 22.5 7.542969 22.605469 7.414062 22.605469 Z M 82.617188 25.316406 C 82.488281 25.316406 82.382812 25.210938 82.382812 25.082031 L 82.382812 23.699219 C 82.382812 23.570312 82.488281 23.46875 82.617188 23.46875 C 82.746094 23.46875 82.847656 23.570312 82.847656 23.699219 L 82.847656 25.082031 C 82.847656 25.210938 82.746094 25.316406 82.617188 25.316406 Z M 7.414062 25.375 C 7.285156 25.375 7.183594 25.273438 7.183594 25.144531 L 7.183594 23.757812 C 7.183594 23.632812 7.285156 23.527344 7.414062 23.527344 C 7.542969 23.527344 7.648438 23.632812 7.648438 23.757812 L 7.648438 25.144531 C 7.648438 25.273438 7.542969 25.375 7.414062 25.375 Z M 82.617188 28.085938 C 82.488281 28.085938 82.382812 27.980469 82.382812 27.855469 L 82.382812 26.46875 C 82.382812 26.339844 82.488281 26.238281 82.617188 26.238281 C 82.746094 26.238281 82.847656 26.339844 82.847656 26.46875 L 82.847656 27.855469 C 82.847656 27.980469 82.746094 28.085938 82.617188 28.085938 Z M 7.414062 28.144531 C 7.285156 28.144531 7.183594 28.042969 7.183594 27.914062 L 7.183594 26.53125 C 7.183594 26.402344 7.285156 26.296875 7.414062 26.296875 C 7.542969 26.296875 7.648438 26.402344 7.648438 26.53125 L 7.648438 27.914062 C 7.648438 28.042969 7.542969 28.144531 7.414062 28.144531 Z M 82.617188 30.855469 C 82.488281 30.855469 82.382812 30.753906 82.382812 30.625 L 82.382812 29.238281 C 82.382812 29.113281 82.488281 29.007812 82.617188 29.007812 C 82.746094 29.007812 82.847656 29.113281 82.847656 29.238281 L 82.847656 30.625 C 82.847656 30.753906 82.746094 30.855469 82.617188 30.855469 Z M 7.414062 30.917969 C 7.285156 30.917969 7.183594 30.8125 7.183594 30.683594 L 7.183594 29.300781 C 7.183594 29.171875 7.285156 29.070312 7.414062 29.070312 C 7.542969 29.070312 7.648438 29.171875 7.648438 29.300781 L 7.648438 30.683594 C 7.648438 30.8125 7.542969 30.917969 7.414062 30.917969 Z M 82.617188 33.625 C 82.488281 33.625 82.382812 33.523438 82.382812 33.394531 L 82.382812 32.011719 C 82.382812 31.882812 82.488281 31.777344 82.617188 31.777344 C 82.746094 31.777344 82.847656 31.882812 82.847656 32.011719 L 82.847656 33.394531 C 82.847656 33.523438 82.746094 33.625 82.617188 33.625 Z M 7.414062 33.6875 C 7.285156 33.6875 7.183594 33.582031 7.183594 33.457031 L 7.183594 32.070312 C 7.183594 31.941406 7.285156 31.839844 7.414062 31.839844 C 7.542969 31.839844 7.648438 31.941406 7.648438 32.070312 L 7.648438 33.457031 C 7.648438 33.582031 7.542969 33.6875 7.414062 33.6875 Z M 82.617188 36.398438 C 82.488281 36.398438 82.382812 36.292969 82.382812 36.164062 L 82.382812 34.78125 C 82.382812 34.652344 82.488281 34.550781 82.617188 34.550781 C 82.746094 34.550781 82.847656 34.652344 82.847656 34.78125 L 82.847656 36.164062 C 82.847656 36.292969 82.746094 36.398438 82.617188 36.398438 Z M 7.414062 36.457031 C 7.285156 36.457031 7.183594 36.355469 7.183594 36.226562 L 7.183594 34.839844 C 7.183594 34.714844 7.285156 34.609375 7.414062 34.609375 C 7.542969 34.609375 7.648438 34.714844 7.648438 34.839844 L 7.648438 36.226562 C 7.648438 36.355469 7.542969 36.457031 7.414062 36.457031 Z M 82.617188 39.167969 C 82.488281 39.167969 82.382812 39.0625 82.382812 38.9375 L 82.382812 37.550781 C 82.382812 37.421875 82.488281 37.320312 82.617188 37.320312 C 82.746094 37.320312 82.847656 37.421875 82.847656 37.550781 L 82.847656 38.9375 C 82.847656 39.0625 82.746094 39.167969 82.617188 39.167969 Z M 7.414062 39.226562 C 7.285156 39.226562 7.183594 39.125 7.183594 38.996094 L 7.183594 37.613281 C 7.183594 37.484375 7.285156 37.378906 7.414062 37.378906 C 7.542969 37.378906 7.648438 37.484375 7.648438 37.613281 L 7.648438 38.996094 C 7.648438 39.125 7.542969 39.226562 7.414062 39.226562 Z M 7.414062 42 C 7.285156 42 7.183594 41.894531 7.183594 41.765625 L 7.183594 40.382812 C 7.183594 40.253906 7.285156 40.152344 7.414062 40.152344 C 7.542969 40.152344 7.648438 40.253906 7.648438 40.382812 L 7.648438 41.765625 C 7.648438 41.894531 7.542969 42 7.414062 42 Z M 10.199219 42 L 8.808594 42 C 8.679688 42 8.574219 41.894531 8.574219 41.765625 C 8.574219 41.640625 8.679688 41.535156 8.808594 41.535156 L 10.199219 41.535156 C 10.328125 41.535156 10.433594 41.640625 10.433594 41.765625 C 10.433594 41.894531 10.328125 42 10.199219 42 Z M 12.984375 42 L 11.59375 42 C 11.464844 42 11.359375 41.894531 11.359375 41.765625 C 11.359375 41.640625 11.464844 41.535156 11.59375 41.535156 L 12.984375 41.535156 C 13.113281 41.535156 13.21875 41.640625 13.21875 41.765625 C 13.21875 41.894531 13.113281 42 12.984375 42 Z M 15.769531 42 L 14.378906 42 C 14.25 42 14.144531 41.894531 14.144531 41.765625 C 14.144531 41.640625 14.25 41.535156 14.378906 41.535156 L 15.769531 41.535156 C 15.898438 41.535156 16.003906 41.640625 16.003906 41.765625 C 16.003906 41.894531 15.898438 42 15.769531 42 Z M 18.554688 42 L 17.164062 42 C 17.035156 42 16.929688 41.894531 16.929688 41.765625 C 16.929688 41.640625 17.035156 41.535156 17.164062 41.535156 L 18.554688 41.535156 C 18.683594 41.535156 18.789062 41.640625 18.789062 41.765625 C 18.789062 41.894531 18.683594 42 18.554688 42 Z M 21.339844 42 L 19.949219 42 C 19.820312 42 19.714844 41.894531 19.714844 41.765625 C 19.714844 41.640625 19.820312 41.535156 19.949219 41.535156 L 21.339844 41.535156 C 21.46875 41.535156 21.574219 41.640625 21.574219 41.765625 C 21.574219 41.894531 21.46875 42 21.339844 42 Z M 24.125 42 L 22.734375 42 C 22.605469 42 22.5 41.894531 22.5 41.765625 C 22.5 41.640625 22.605469 41.535156 22.734375 41.535156 L 24.125 41.535156 C 24.253906 41.535156 24.359375 41.640625 24.359375 41.765625 C 24.359375 41.894531 24.253906 42 24.125 42 Z M 26.910156 42 L 25.519531 42 C 25.390625 42 25.285156 41.894531 25.285156 41.765625 C 25.285156 41.640625 25.390625 41.535156 25.519531 41.535156 L 26.910156 41.535156 C 27.039062 41.535156 27.144531 41.640625 27.144531 41.765625 C 27.144531 41.894531 27.039062 42 26.910156 42 Z M 29.695312 42 L 28.304688 42 C 28.175781 42 28.070312 41.894531 28.070312 41.765625 C 28.070312 41.640625 28.175781 41.535156 28.304688 41.535156 L 29.695312 41.535156 C 29.824219 41.535156 29.929688 41.640625 29.929688 41.765625 C 29.929688 41.894531 29.824219 42 29.695312 42 Z M 32.480469 42 L 31.089844 42 C 30.960938 42 30.859375 41.894531 30.859375 41.765625 C 30.859375 41.640625 30.960938 41.535156 31.089844 41.535156 L 32.480469 41.535156 C 32.609375 41.535156 32.714844 41.640625 32.714844 41.765625 C 32.714844 41.894531 32.609375 42 32.480469 42 Z M 35.265625 42 L 33.875 42 C 33.746094 42 33.644531 41.894531 33.644531 41.765625 C 33.644531 41.640625 33.746094 41.535156 33.875 41.535156 L 35.265625 41.535156 C 35.394531 41.535156 35.5 41.640625 35.5 41.765625 C 35.5 41.894531 35.394531 42 35.265625 42 Z M 38.050781 42 L 36.660156 42 C 36.53125 42 36.429688 41.894531 36.429688 41.765625 C 36.429688 41.640625 36.53125 41.535156 36.660156 41.535156 L 38.050781 41.535156 C 38.179688 41.535156 38.285156 41.640625 38.285156 41.765625 C 38.285156 41.894531 38.179688 42 38.050781 42 Z M 40.835938 42 L 39.445312 42 C 39.316406 42 39.214844 41.894531 39.214844 41.765625 C 39.214844 41.640625 39.316406 41.535156 39.445312 41.535156 L 40.835938 41.535156 C 40.964844 41.535156 41.070312 41.640625 41.070312 41.765625 C 41.070312 41.894531 40.964844 42 40.835938 42 Z M 43.625 42 L 42.230469 42 C 42.101562 42 42 41.894531 42 41.765625 C 42 41.640625 42.101562 41.535156 42.230469 41.535156 L 43.625 41.535156 C 43.75 41.535156 43.855469 41.640625 43.855469 41.765625 C 43.855469 41.894531 43.75 42 43.625 42 Z M 46.410156 42 L 45.015625 42 C 44.886719 42 44.785156 41.894531 44.785156 41.765625 C 44.785156 41.640625 44.886719 41.535156 45.015625 41.535156 L 46.410156 41.535156 C 46.535156 41.535156 46.640625 41.640625 46.640625 41.765625 C 46.640625 41.894531 46.535156 42 46.410156 42 Z M 49.195312 42 L 47.800781 42 C 47.671875 42 47.570312 41.894531 47.570312 41.765625 C 47.570312 41.640625 47.671875 41.535156 47.800781 41.535156 L 49.195312 41.535156 C 49.320312 41.535156 49.425781 41.640625 49.425781 41.765625 C 49.425781 41.894531 49.320312 42 49.195312 42 Z M 51.980469 42 L 50.585938 42 C 50.457031 42 50.355469 41.894531 50.355469 41.765625 C 50.355469 41.640625 50.457031 41.535156 50.585938 41.535156 L 51.980469 41.535156 C 52.105469 41.535156 52.210938 41.640625 52.210938 41.765625 C 52.210938 41.894531 52.105469 42 51.980469 42 Z M 54.765625 42 L 53.371094 42 C 53.242188 42 53.140625 41.894531 53.140625 41.765625 C 53.140625 41.640625 53.242188 41.535156 53.371094 41.535156 L 54.765625 41.535156 C 54.890625 41.535156 54.996094 41.640625 54.996094 41.765625 C 54.996094 41.894531 54.890625 42 54.765625 42 Z M 57.550781 42 L 56.15625 42 C 56.027344 42 55.925781 41.894531 55.925781 41.765625 C 55.925781 41.640625 56.027344 41.535156 56.15625 41.535156 L 57.550781 41.535156 C 57.675781 41.535156 57.78125 41.640625 57.78125 41.765625 C 57.78125 41.894531 57.675781 42 57.550781 42 Z M 60.335938 42 L 58.941406 42 C 58.8125 42 58.710938 41.894531 58.710938 41.765625 C 58.710938 41.640625 58.8125 41.535156 58.941406 41.535156 L 60.335938 41.535156 C 60.460938 41.535156 60.566406 41.640625 60.566406 41.765625 C 60.566406 41.894531 60.460938 42 60.335938 42 Z M 63.121094 42 L 61.726562 42 C 61.597656 42 61.496094 41.894531 61.496094 41.765625 C 61.496094 41.640625 61.597656 41.535156 61.726562 41.535156 L 63.121094 41.535156 C 63.246094 41.535156 63.351562 41.640625 63.351562 41.765625 C 63.351562 41.894531 63.246094 42 63.121094 42 Z M 65.90625 42 L 64.511719 42 C 64.382812 42 64.28125 41.894531 64.28125 41.765625 C 64.28125 41.640625 64.382812 41.535156 64.511719 41.535156 L 65.90625 41.535156 C 66.03125 41.535156 66.136719 41.640625 66.136719 41.765625 C 66.136719 41.894531 66.03125 42 65.90625 42 Z M 68.691406 42 L 67.296875 42 C 67.167969 42 67.066406 41.894531 67.066406 41.765625 C 67.066406 41.640625 67.167969 41.535156 67.296875 41.535156 L 68.691406 41.535156 C 68.816406 41.535156 68.921875 41.640625 68.921875 41.765625 C 68.921875 41.894531 68.816406 42 68.691406 42 Z M 71.476562 42 L 70.082031 42 C 69.953125 42 69.851562 41.894531 69.851562 41.765625 C 69.851562 41.640625 69.953125 41.535156 70.082031 41.535156 L 71.476562 41.535156 C 71.601562 41.535156 71.707031 41.640625 71.707031 41.765625 C 71.707031 41.894531 71.601562 42 71.476562 42 Z M 74.261719 42 L 72.867188 42 C 72.738281 42 72.636719 41.894531 72.636719 41.765625 C 72.636719 41.640625 72.738281 41.535156 72.867188 41.535156 L 74.261719 41.535156 C 74.390625 41.535156 74.492188 41.640625 74.492188 41.765625 C 74.492188 41.894531 74.390625 42 74.261719 42 Z M 77.046875 42 L 75.652344 42 C 75.523438 42 75.421875 41.894531 75.421875 41.765625 C 75.421875 41.640625 75.523438 41.535156 75.652344 41.535156 L 77.046875 41.535156 C 77.175781 41.535156 77.277344 41.640625 77.277344 41.765625 C 77.277344 41.894531 77.175781 42 77.046875 42 Z M 79.832031 42 L 78.4375 42 C 78.308594 42 78.207031 41.894531 78.207031 41.765625 C 78.207031 41.640625 78.308594 41.535156 78.4375 41.535156 L 79.832031 41.535156 C 79.957031 41.535156 80.0625 41.640625 80.0625 41.765625 C 80.0625 41.894531 79.957031 42 79.832031 42 Z M 82.617188 42 L 81.222656 42 C 81.09375 42 80.992188 41.894531 80.992188 41.765625 C 80.992188 41.640625 81.09375 41.535156 81.222656 41.535156 L 82.382812 41.535156 L 82.382812 40.320312 C 82.382812 40.195312 82.488281 40.089844 82.617188 40.089844 C 82.746094 40.089844 82.847656 40.195312 82.847656 40.320312 L 82.847656 41.707031 C 82.847656 41.71875 82.847656 41.726562 82.847656 41.738281 C 82.847656 41.746094 82.847656 41.757812 82.847656 41.765625 C 82.847656 41.894531 82.746094 42 82.617188 42 " fill-opacity="1" fill-rule="nonzero"/></g></svg>