<svg xmlns="http://www.w3.org/2000/svg" xmlns:xlink="http://www.w3.org/1999/xlink" width="500" zoomAndPan="magnify" viewBox="0 0 375 374.999991" height="500" preserveAspectRatio="xMidYMid meet" version="1.0"><defs><g/></defs><path fill="#e5d7ff" d="M 102.335938 97.652344 C 99.839844 98.597656 102.867188 102.136719 105.507812 102.558594 C 118.09375 104.554688 131.3125 102.320312 142.554688 96.304688 C 158.75 87.640625 168.007812 69.234375 201.261719 54.050781 C 214.550781 47.984375 233.109375 44.953125 246.042969 48.261719 C 258.980469 51.566406 270.828125 60.914062 274.75 73.695312 C 281.871094 96.902344 273.648438 108.742188 271.386719 132.910156 C 279.996094 131.183594 289.105469 134.96875 295.246094 141.257812 C 301.390625 147.550781 300.523438 158.371094 306.691406 164.644531 C 330.261719 188.625 334.710938 225.535156 329.53125 244.867188 C 306.714844 329.957031 243.425781 274.035156 172.304688 299.015625 C 152.882812 305.835938 131.074219 299.089844 111.300781 293.363281 C 94.644531 288.542969 77.457031 280.980469 68.285156 266.246094 C 59.113281 251.503906 62.46875 228.164062 78.574219 221.730469 C 83.066406 219.9375 88.140625 219.546875 92.230469 216.964844 C 101.054688 211.398438 101.351562 198.257812 97.28125 188.632812 C 93.214844 179.007812 85.988281 170.894531 82.570312 161.019531 C 75.042969 139.292969 72.078125 106.160156 94.824219 103.070312 " fill-opacity="1" fill-rule="nonzero"/><path fill="#5067b2" d="M 116.851562 252.773438 L 82.921875 252.773438 L 82.921875 237.222656 C 82.921875 229.101562 89.523438 222.496094 97.640625 222.496094 L 102.140625 222.496094 C 110.253906 222.496094 116.851562 229.105469 116.851562 237.222656 Z M 85.695312 250.003906 L 114.085938 250.003906 L 114.085938 237.222656 C 114.085938 230.632812 108.726562 225.269531 102.140625 225.269531 L 97.640625 225.269531 C 91.050781 225.269531 85.695312 230.632812 85.695312 237.222656 Z M 85.695312 250.003906 " fill-opacity="1" fill-rule="nonzero"/><path fill="#5067b2" d="M 135.246094 310.234375 L 64.53125 310.234375 L 74.636719 246.328125 L 125.144531 246.328125 Z M 135.246094 310.234375 " fill-opacity="1" fill-rule="nonzero"/><path fill="#585caf" d="M 135.246094 310.234375 L 110.414062 310.234375 L 110.414062 246.328125 L 125.144531 246.328125 Z M 135.246094 310.234375 " fill-opacity="0.47" fill-rule="nonzero"/><path fill="#181d23" d="M 229.976562 284.066406 L 148.347656 284.066406 C 143.5625 284.066406 139.683594 280.203125 139.683594 275.433594 L 139.683594 123.03125 C 139.683594 118.261719 143.5625 114.398438 148.347656 114.398438 L 229.980469 114.398438 C 234.761719 114.398438 238.644531 118.261719 238.644531 123.03125 L 238.644531 275.433594 C 238.644531 280.203125 234.761719 284.066406 229.976562 284.066406 Z M 229.976562 284.066406 " fill-opacity="1" fill-rule="nonzero"/><path fill="#ffffff" d="M 142.765625 274.308594 C 142.765625 277.355469 145.269531 279.835938 148.347656 279.835938 L 229.980469 279.835938 C 233.058594 279.835938 235.5625 277.355469 235.5625 274.308594 L 235.5625 135.574219 L 142.765625 135.574219 Z M 142.765625 274.308594 " fill-opacity="1" fill-rule="nonzero"/><path fill="#e7e2fd" d="M 229.976562 117.46875 L 148.347656 117.46875 C 145.269531 117.46875 142.765625 119.945312 142.765625 122.992188 L 142.765625 135.574219 L 235.5625 135.574219 L 235.5625 122.992188 C 235.5625 119.945312 233.054688 117.46875 229.976562 117.46875 Z M 229.976562 117.46875 " fill-opacity="1" fill-rule="nonzero"/><path fill="#545452" d="M 201.328125 121.160156 L 177.308594 121.160156 C 177.292969 121.160156 177.273438 121.144531 177.273438 121.125 L 177.273438 118.390625 C 177.273438 118.371094 177.289062 118.355469 177.308594 118.355469 L 201.328125 118.355469 C 201.347656 118.355469 201.363281 118.367188 201.363281 118.390625 L 201.363281 121.125 C 201.363281 121.144531 201.347656 121.160156 201.328125 121.160156 Z M 201.328125 121.160156 " fill-opacity="1" fill-rule="nonzero"/><path fill="#ffc043" d="M 212.515625 254.082031 L 165.808594 254.082031 C 165.761719 254.082031 165.722656 254.042969 165.722656 254 L 165.722656 243.332031 C 165.722656 243.285156 165.761719 243.25 165.808594 243.25 L 212.515625 243.25 C 212.5625 243.25 212.601562 243.285156 212.601562 243.332031 L 212.601562 254 C 212.601562 254.042969 212.5625 254.082031 212.515625 254.082031 Z M 212.515625 254.082031 " fill-opacity="1" fill-rule="nonzero"/><g fill="#ffffff" fill-opacity="1"><g transform="translate(171.502611, 250.100316)"><g><path d="M 1.109375 -0.125 L 1.109375 0 L 0.046875 0 L 0.046875 -0.125 L 0.40625 -0.1875 L 1.515625 -3.234375 L 1.96875 -3.234375 L 3.109375 -0.1875 L 3.515625 -0.125 L 3.515625 0 L 2.15625 0 L 2.15625 -0.125 L 2.59375 -0.1875 L 2.265625 -1.125 L 1 -1.125 L 0.671875 -0.1875 Z M 1.625 -2.890625 L 1.078125 -1.328125 L 2.1875 -1.328125 Z M 1.625 -2.890625 "/></g></g></g><g fill="#ffffff" fill-opacity="1"><g transform="translate(175.052609, 250.100316)"><g><path d="M 2.859375 -1.625 C 2.859375 -2.070312 2.734375 -2.410156 2.484375 -2.640625 C 2.242188 -2.878906 1.898438 -3 1.453125 -3 L 1.015625 -3 L 1.015625 -0.21875 C 1.210938 -0.207031 1.441406 -0.203125 1.703125 -0.203125 C 2.097656 -0.203125 2.390625 -0.316406 2.578125 -0.546875 C 2.765625 -0.785156 2.859375 -1.144531 2.859375 -1.625 Z M 1.609375 -3.21875 C 2.203125 -3.21875 2.640625 -3.082031 2.921875 -2.8125 C 3.210938 -2.550781 3.359375 -2.15625 3.359375 -1.625 C 3.359375 -1.082031 3.21875 -0.671875 2.9375 -0.390625 C 2.664062 -0.117188 2.253906 0.015625 1.703125 0.015625 L 0.5625 0 L 0.140625 0 L 0.140625 -0.125 L 0.5625 -0.1875 L 0.5625 -3.015625 L 0.140625 -3.078125 L 0.140625 -3.21875 Z M 1.609375 -3.21875 "/></g></g></g><g fill="#ffffff" fill-opacity="1"><g transform="translate(178.602608, 250.100316)"><g><path d="M 2.859375 -1.625 C 2.859375 -2.070312 2.734375 -2.410156 2.484375 -2.640625 C 2.242188 -2.878906 1.898438 -3 1.453125 -3 L 1.015625 -3 L 1.015625 -0.21875 C 1.210938 -0.207031 1.441406 -0.203125 1.703125 -0.203125 C 2.097656 -0.203125 2.390625 -0.316406 2.578125 -0.546875 C 2.765625 -0.785156 2.859375 -1.144531 2.859375 -1.625 Z M 1.609375 -3.21875 C 2.203125 -3.21875 2.640625 -3.082031 2.921875 -2.8125 C 3.210938 -2.550781 3.359375 -2.15625 3.359375 -1.625 C 3.359375 -1.082031 3.21875 -0.671875 2.9375 -0.390625 C 2.664062 -0.117188 2.253906 0.015625 1.703125 0.015625 L 0.5625 0 L 0.140625 0 L 0.140625 -0.125 L 0.5625 -0.1875 L 0.5625 -3.015625 L 0.140625 -3.078125 L 0.140625 -3.21875 Z M 1.609375 -3.21875 "/></g></g></g><g fill="#ffffff" fill-opacity="1"><g transform="translate(182.152607, 250.100316)"><g/></g></g><g fill="#ffffff" fill-opacity="1"><g transform="translate(183.292555, 250.100316)"><g><path d="M 0.75 0 L 0.75 -0.125 L 1.265625 -0.1875 L 1.265625 -3 L 1.140625 -3 C 0.734375 -3 0.457031 -2.984375 0.3125 -2.953125 L 0.25 -2.453125 L 0.09375 -2.453125 L 0.09375 -3.21875 L 2.921875 -3.21875 L 2.921875 -2.453125 L 2.765625 -2.453125 L 2.703125 -2.953125 C 2.648438 -2.960938 2.539062 -2.972656 2.375 -2.984375 C 2.21875 -2.992188 2.039062 -3 1.84375 -3 L 1.734375 -3 L 1.734375 -0.1875 L 2.25 -0.125 L 2.25 0 Z M 0.75 0 "/></g></g></g><g fill="#ffffff" fill-opacity="1"><g transform="translate(186.206306, 250.100316)"><g><path d="M 0.703125 -1.609375 C 0.703125 -1.097656 0.785156 -0.722656 0.953125 -0.484375 C 1.128906 -0.253906 1.40625 -0.140625 1.78125 -0.140625 C 2.144531 -0.140625 2.410156 -0.253906 2.578125 -0.484375 C 2.753906 -0.722656 2.84375 -1.097656 2.84375 -1.609375 C 2.84375 -2.117188 2.753906 -2.488281 2.578125 -2.71875 C 2.410156 -2.945312 2.144531 -3.0625 1.78125 -3.0625 C 1.40625 -3.0625 1.128906 -2.945312 0.953125 -2.71875 C 0.785156 -2.488281 0.703125 -2.117188 0.703125 -1.609375 Z M 0.203125 -1.609375 C 0.203125 -2.703125 0.726562 -3.25 1.78125 -3.25 C 2.289062 -3.25 2.679688 -3.109375 2.953125 -2.828125 C 3.222656 -2.554688 3.359375 -2.148438 3.359375 -1.609375 C 3.359375 -1.066406 3.222656 -0.65625 2.953125 -0.375 C 2.679688 -0.09375 2.289062 0.046875 1.78125 0.046875 C 1.269531 0.046875 0.878906 -0.0859375 0.609375 -0.359375 C 0.335938 -0.640625 0.203125 -1.054688 0.203125 -1.609375 Z M 0.203125 -1.609375 "/></g></g></g><g fill="#ffffff" fill-opacity="1"><g transform="translate(189.756305, 250.100316)"><g/></g></g><g fill="#ffffff" fill-opacity="1"><g transform="translate(190.985241, 250.100316)"><g><path d="M 1.859375 0.046875 C 1.335938 0.046875 0.929688 -0.09375 0.640625 -0.375 C 0.347656 -0.65625 0.203125 -1.050781 0.203125 -1.5625 C 0.203125 -2.113281 0.34375 -2.53125 0.625 -2.8125 C 0.90625 -3.101562 1.320312 -3.25 1.875 -3.25 C 2.207031 -3.25 2.566406 -3.207031 2.953125 -3.125 L 2.96875 -2.421875 L 2.796875 -2.421875 L 2.734375 -2.84375 C 2.617188 -2.90625 2.488281 -2.957031 2.34375 -3 C 2.195312 -3.039062 2.046875 -3.0625 1.890625 -3.0625 C 1.472656 -3.0625 1.171875 -2.9375 0.984375 -2.6875 C 0.796875 -2.445312 0.703125 -2.078125 0.703125 -1.578125 C 0.703125 -1.109375 0.800781 -0.75 1 -0.5 C 1.195312 -0.257812 1.484375 -0.140625 1.859375 -0.140625 C 2.046875 -0.140625 2.21875 -0.160156 2.375 -0.203125 C 2.539062 -0.242188 2.671875 -0.300781 2.765625 -0.375 L 2.859375 -0.859375 L 3.015625 -0.859375 L 3 -0.109375 C 2.644531 -0.00390625 2.265625 0.046875 1.859375 0.046875 Z M 1.859375 0.046875 "/></g></g></g><g fill="#ffffff" fill-opacity="1"><g transform="translate(194.264003, 250.100316)"><g><path d="M 1.109375 -0.125 L 1.109375 0 L 0.046875 0 L 0.046875 -0.125 L 0.40625 -0.1875 L 1.515625 -3.234375 L 1.96875 -3.234375 L 3.109375 -0.1875 L 3.515625 -0.125 L 3.515625 0 L 2.15625 0 L 2.15625 -0.125 L 2.59375 -0.1875 L 2.265625 -1.125 L 1 -1.125 L 0.671875 -0.1875 Z M 1.625 -2.890625 L 1.078125 -1.328125 L 2.1875 -1.328125 Z M 1.625 -2.890625 "/></g></g></g><g fill="#ffffff" fill-opacity="1"><g transform="translate(197.814002, 250.100316)"><g><path d="M 1.015625 -1.40625 L 1.015625 -0.1875 L 1.5 -0.125 L 1.5 0 L 0.171875 0 L 0.171875 -0.125 L 0.5625 -0.1875 L 0.5625 -3.015625 L 0.140625 -3.078125 L 0.140625 -3.21875 L 1.53125 -3.21875 C 1.9375 -3.21875 2.234375 -3.148438 2.421875 -3.015625 C 2.617188 -2.878906 2.71875 -2.660156 2.71875 -2.359375 C 2.71875 -2.140625 2.65625 -1.953125 2.53125 -1.796875 C 2.414062 -1.640625 2.257812 -1.53125 2.0625 -1.46875 L 2.921875 -0.1875 L 3.28125 -0.125 L 3.28125 0 L 2.5 0 L 1.59375 -1.40625 Z M 2.234375 -2.328125 C 2.234375 -2.566406 2.171875 -2.738281 2.046875 -2.84375 C 1.929688 -2.945312 1.726562 -3 1.4375 -3 L 1.015625 -3 L 1.015625 -1.625 L 1.4375 -1.625 C 1.726562 -1.625 1.929688 -1.675781 2.046875 -1.78125 C 2.171875 -1.882812 2.234375 -2.066406 2.234375 -2.328125 Z M 2.234375 -2.328125 "/></g></g></g><g fill="#ffffff" fill-opacity="1"><g transform="translate(200.796942, 250.100316)"><g><path d="M 0.75 0 L 0.75 -0.125 L 1.265625 -0.1875 L 1.265625 -3 L 1.140625 -3 C 0.734375 -3 0.457031 -2.984375 0.3125 -2.953125 L 0.25 -2.453125 L 0.09375 -2.453125 L 0.09375 -3.21875 L 2.921875 -3.21875 L 2.921875 -2.453125 L 2.765625 -2.453125 L 2.703125 -2.953125 C 2.648438 -2.960938 2.539062 -2.972656 2.375 -2.984375 C 2.21875 -2.992188 2.039062 -3 1.84375 -3 L 1.734375 -3 L 1.734375 -0.1875 L 2.25 -0.125 L 2.25 0 Z M 0.75 0 "/></g></g></g><path fill="#ffc043" d="M 232.152344 130.964844 L 220.808594 130.964844 C 220.785156 130.964844 220.765625 130.941406 220.765625 130.921875 L 220.765625 121.5625 C 220.765625 121.539062 220.789062 121.523438 220.808594 121.523438 L 232.152344 121.523438 C 232.175781 121.523438 232.195312 121.542969 232.195312 121.5625 L 232.195312 130.921875 C 232.195312 130.941406 232.175781 130.964844 232.152344 130.964844 Z M 232.152344 130.964844 " fill-opacity="1" fill-rule="nonzero"/><path fill="#2a294b" d="M 225.460938 128.699219 L 225.40625 129.433594 L 225.539062 129.433594 L 225.839844 128.734375 " fill-opacity="1" fill-rule="nonzero"/><path fill="#2a294b" d="M 225.839844 129.511719 C 225.839844 129.707031 225.683594 129.863281 225.488281 129.863281 C 225.292969 129.863281 225.132812 129.707031 225.132812 129.511719 C 225.132812 129.316406 225.289062 129.160156 225.488281 129.160156 C 225.683594 129.15625 225.839844 129.316406 225.839844 129.511719 Z M 225.839844 129.511719 " fill-opacity="1" fill-rule="nonzero"/><path fill="#fcfaff" d="M 225.640625 129.511719 C 225.640625 129.59375 225.570312 129.664062 225.488281 129.664062 C 225.40625 129.664062 225.335938 129.59375 225.335938 129.511719 C 225.335938 129.429688 225.40625 129.359375 225.488281 129.359375 C 225.570312 129.359375 225.640625 129.425781 225.640625 129.511719 Z M 225.640625 129.511719 " fill-opacity="1" fill-rule="nonzero"/><path fill="#2a294b" d="M 229.304688 128.730469 L 229.359375 129.464844 L 229.226562 129.464844 L 228.925781 128.765625 " fill-opacity="1" fill-rule="nonzero"/><path fill="#2a294b" d="M 228.925781 129.539062 C 228.925781 129.734375 229.082031 129.890625 229.28125 129.890625 C 229.476562 129.890625 229.632812 129.734375 229.632812 129.539062 C 229.632812 129.34375 229.476562 129.1875 229.28125 129.1875 C 229.082031 129.1875 228.925781 129.347656 228.925781 129.539062 Z M 228.925781 129.539062 " fill-opacity="1" fill-rule="nonzero"/><path fill="#fcfaff" d="M 229.429688 129.539062 C 229.429688 129.640625 229.378906 129.691406 229.277344 129.691406 C 229.175781 129.691406 229.125 129.640625 229.125 129.539062 C 229.125 129.4375 229.175781 129.386719 229.277344 129.386719 C 229.378906 129.386719 229.429688 129.4375 229.429688 129.539062 Z M 229.429688 129.539062 " fill-opacity="1" fill-rule="nonzero"/><path fill="#fcfaff" d="M 229.511719 128.808594 L 225.679688 128.808594 C 225.359375 128.808594 225.105469 128.578125 225.105469 128.296875 L 225.105469 127.398438 C 225.105469 127.355469 225.136719 127.324219 225.175781 127.324219 L 229.511719 127.324219 C 229.554688 127.324219 229.585938 127.355469 229.585938 127.398438 C 229.585938 127.4375 229.554688 127.46875 229.511719 127.46875 L 225.25 127.46875 L 225.25 128.296875 C 225.25 128.496094 225.441406 128.664062 225.679688 128.664062 L 229.511719 128.664062 C 229.554688 128.664062 229.585938 128.695312 229.585938 128.734375 C 229.585938 128.777344 229.550781 128.808594 229.511719 128.808594 Z M 229.511719 128.808594 " fill-opacity="1" fill-rule="nonzero"/><path fill="#fbfafc" d="M 229.511719 128.917969 L 225.679688 128.917969 C 225.300781 128.917969 224.996094 128.640625 224.996094 128.296875 L 224.996094 127.402344 C 224.996094 127.300781 225.078125 127.222656 225.175781 127.222656 L 229.511719 127.222656 C 229.613281 127.222656 229.691406 127.304688 229.691406 127.402344 C 229.691406 127.5 229.609375 127.582031 229.511719 127.582031 L 225.355469 127.582031 L 225.355469 128.296875 C 225.355469 128.4375 225.5 128.550781 225.679688 128.550781 L 229.511719 128.550781 C 229.613281 128.550781 229.691406 128.636719 229.691406 128.730469 C 229.691406 128.835938 229.613281 128.917969 229.511719 128.917969 Z M 229.511719 128.917969 " fill-opacity="1" fill-rule="nonzero"/><path fill="#fcfaff" d="M 229.511719 127.472656 L 225.175781 127.472656 C 225.144531 127.472656 225.113281 127.453125 225.105469 127.421875 L 223.96875 123.40625 L 221.46875 122.730469 C 221.433594 122.722656 221.40625 122.683594 221.414062 122.644531 C 221.425781 122.609375 221.464844 122.582031 221.5 122.589844 L 224.039062 123.273438 C 224.066406 123.28125 224.089844 123.296875 224.09375 123.324219 L 225.230469 127.332031 L 229.453125 127.332031 L 230.320312 123.753906 C 230.332031 123.714844 230.367188 123.691406 230.40625 123.703125 C 230.445312 123.714844 230.46875 123.75 230.457031 123.789062 L 229.578125 127.421875 C 229.574219 127.449219 229.546875 127.472656 229.511719 127.472656 Z M 229.511719 127.472656 " fill-opacity="1" fill-rule="nonzero"/><path fill="#fbfafc" d="M 229.511719 127.582031 L 225.175781 127.582031 C 225.097656 127.582031 225.023438 127.527344 225.003906 127.449219 L 223.882812 123.492188 L 221.441406 122.835938 C 221.402344 122.824219 221.359375 122.796875 221.332031 122.757812 C 221.308594 122.714844 221.296875 122.667969 221.308594 122.617188 C 221.316406 122.574219 221.34375 122.53125 221.386719 122.503906 C 221.429688 122.480469 221.476562 122.46875 221.527344 122.480469 L 224.066406 123.164062 C 224.125 123.175781 224.179688 123.222656 224.199219 123.285156 L 225.3125 127.214844 L 229.367188 127.214844 L 230.214844 123.71875 C 230.238281 123.625 230.332031 123.5625 230.433594 123.585938 C 230.53125 123.609375 230.589844 123.707031 230.570312 123.804688 L 229.6875 127.433594 C 229.667969 127.527344 229.597656 127.582031 229.511719 127.582031 Z M 229.511719 127.582031 " fill-opacity="1" fill-rule="nonzero"/><path fill="#fcfaff" d="M 230.375 123.84375 L 224.1875 123.84375 C 224.148438 123.84375 224.117188 123.8125 224.117188 123.773438 C 224.117188 123.730469 224.148438 123.699219 224.1875 123.699219 L 230.375 123.699219 C 230.417969 123.699219 230.449219 123.730469 230.449219 123.773438 C 230.449219 123.8125 230.414062 123.84375 230.375 123.84375 Z M 230.375 123.84375 " fill-opacity="1" fill-rule="nonzero"/><path fill="#fbfafc" d="M 230.375 123.953125 L 224.1875 123.953125 C 224.089844 123.953125 224.007812 123.871094 224.007812 123.773438 C 224.007812 123.671875 224.09375 123.59375 224.1875 123.59375 L 230.375 123.59375 C 230.476562 123.59375 230.554688 123.675781 230.554688 123.773438 C 230.554688 123.871094 230.476562 123.953125 230.375 123.953125 Z M 230.375 123.953125 " fill-opacity="1" fill-rule="nonzero"/><path fill="#fcfaff" d="M 230.175781 124.742188 L 224.386719 124.742188 C 224.34375 124.742188 224.3125 124.710938 224.3125 124.667969 C 224.3125 124.628906 224.34375 124.597656 224.386719 124.597656 L 230.175781 124.597656 C 230.214844 124.597656 230.246094 124.628906 230.246094 124.667969 C 230.246094 124.710938 230.214844 124.742188 230.175781 124.742188 Z M 230.175781 124.742188 " fill-opacity="1" fill-rule="nonzero"/><path fill="#fbfafc" d="M 230.175781 124.851562 L 224.386719 124.851562 C 224.285156 124.851562 224.207031 124.769531 224.207031 124.667969 C 224.207031 124.570312 224.289062 124.488281 224.386719 124.488281 L 230.175781 124.488281 C 230.273438 124.488281 230.355469 124.574219 230.355469 124.667969 C 230.355469 124.769531 230.273438 124.851562 230.175781 124.851562 Z M 230.175781 124.851562 " fill-opacity="1" fill-rule="nonzero"/><path fill="#fcfaff" d="M 229.917969 125.59375 L 224.71875 125.59375 C 224.675781 125.59375 224.644531 125.5625 224.644531 125.523438 C 224.644531 125.480469 224.675781 125.449219 224.71875 125.449219 L 229.917969 125.449219 C 229.960938 125.449219 229.992188 125.480469 229.992188 125.523438 C 229.992188 125.5625 229.957031 125.59375 229.917969 125.59375 Z M 229.917969 125.59375 " fill-opacity="1" fill-rule="nonzero"/><path fill="#fbfafc" d="M 229.917969 125.707031 L 224.71875 125.707031 C 224.617188 125.707031 224.539062 125.621094 224.539062 125.527344 C 224.539062 125.425781 224.621094 125.34375 224.71875 125.34375 L 229.917969 125.34375 C 230.019531 125.34375 230.097656 125.425781 230.097656 125.527344 C 230.097656 125.621094 230.015625 125.707031 229.917969 125.707031 Z M 229.917969 125.707031 " fill-opacity="1" fill-rule="nonzero"/><path fill="#fcfaff" d="M 229.710938 126.519531 L 224.925781 126.519531 C 224.886719 126.519531 224.855469 126.488281 224.855469 126.449219 C 224.855469 126.40625 224.886719 126.375 224.925781 126.375 L 229.710938 126.375 C 229.75 126.375 229.78125 126.40625 229.78125 126.449219 C 229.78125 126.488281 229.75 126.519531 229.710938 126.519531 Z M 229.710938 126.519531 " fill-opacity="1" fill-rule="nonzero"/><path fill="#fbfafc" d="M 229.714844 126.632812 L 224.933594 126.632812 C 224.832031 126.632812 224.753906 126.546875 224.753906 126.453125 C 224.753906 126.351562 224.835938 126.269531 224.933594 126.269531 L 229.714844 126.269531 C 229.8125 126.269531 229.894531 126.355469 229.894531 126.453125 C 229.894531 126.546875 229.8125 126.632812 229.714844 126.632812 Z M 229.714844 126.632812 " fill-opacity="1" fill-rule="nonzero"/><path fill="#fcfaff" d="M 226.050781 127.472656 C 226.019531 127.472656 225.988281 127.449219 225.980469 127.414062 L 225.25 123.785156 C 225.242188 123.746094 225.265625 123.710938 225.304688 123.699219 C 225.34375 123.691406 225.378906 123.714844 225.390625 123.753906 L 226.121094 127.382812 C 226.128906 127.421875 226.105469 127.460938 226.066406 127.46875 C 226.0625 127.472656 226.054688 127.472656 226.050781 127.472656 Z M 226.050781 127.472656 " fill-opacity="1" fill-rule="nonzero"/><path fill="#fbfafc" d="M 226.050781 127.582031 C 225.964844 127.582031 225.890625 127.519531 225.875 127.4375 L 225.144531 123.808594 C 225.132812 123.757812 225.144531 123.710938 225.171875 123.671875 C 225.199219 123.628906 225.242188 123.601562 225.289062 123.59375 C 225.335938 123.585938 225.378906 123.59375 225.421875 123.625 C 225.464844 123.652344 225.492188 123.6875 225.5 123.738281 L 226.230469 127.367188 C 226.238281 127.414062 226.230469 127.464844 226.203125 127.5 C 226.175781 127.542969 226.132812 127.570312 226.085938 127.578125 Z M 226.050781 127.582031 " fill-opacity="1" fill-rule="nonzero"/><path fill="#fcfaff" d="M 227.34375 127.472656 C 227.304688 127.472656 227.273438 127.441406 227.273438 127.402344 L 227.242188 123.773438 C 227.242188 123.730469 227.273438 123.699219 227.316406 123.699219 C 227.359375 123.699219 227.390625 123.730469 227.390625 123.773438 L 227.417969 127.402344 C 227.417969 127.4375 227.386719 127.472656 227.34375 127.472656 Z M 227.34375 127.472656 " fill-opacity="1" fill-rule="nonzero"/><path fill="#fbfafc" d="M 227.34375 127.582031 C 227.242188 127.582031 227.164062 127.5 227.160156 127.402344 L 227.132812 123.773438 C 227.132812 123.671875 227.214844 123.59375 227.3125 123.589844 C 227.414062 123.589844 227.496094 123.667969 227.496094 123.769531 L 227.523438 127.398438 C 227.523438 127.496094 227.445312 127.582031 227.34375 127.582031 Z M 227.34375 127.582031 " fill-opacity="1" fill-rule="nonzero"/><path fill="#fcfaff" d="M 228.695312 127.472656 C 228.691406 127.472656 228.6875 127.472656 228.683594 127.472656 C 228.648438 127.46875 228.617188 127.433594 228.621094 127.390625 L 229.167969 123.761719 C 229.171875 123.722656 229.207031 123.695312 229.25 123.699219 C 229.289062 123.707031 229.316406 123.742188 229.3125 123.78125 L 228.769531 127.410156 C 228.761719 127.445312 228.730469 127.472656 228.695312 127.472656 Z M 228.695312 127.472656 " fill-opacity="1" fill-rule="nonzero"/><path fill="#fbfafc" d="M 228.691406 127.582031 L 228.671875 127.582031 C 228.617188 127.574219 228.574219 127.546875 228.546875 127.507812 C 228.519531 127.46875 228.503906 127.421875 228.511719 127.375 L 229.054688 123.746094 C 229.070312 123.648438 229.160156 123.578125 229.261719 123.59375 C 229.3125 123.597656 229.351562 123.625 229.382812 123.664062 C 229.410156 123.703125 229.421875 123.75 229.414062 123.800781 L 228.871094 127.429688 C 228.859375 127.519531 228.785156 127.582031 228.691406 127.582031 Z M 228.691406 127.582031 " fill-opacity="1" fill-rule="nonzero"/><path fill="#b9b9ef" d="M 57.828125 135.675781 L 120.613281 135.675781 C 121.617188 135.675781 122.433594 134.859375 122.433594 133.855469 L 122.433594 82.601562 C 122.433594 81.597656 121.617188 80.78125 120.613281 80.78125 L 57.828125 80.78125 C 56.824219 80.78125 56.011719 81.597656 56.011719 82.601562 L 56.011719 133.855469 C 56.007812 134.859375 56.824219 135.675781 57.828125 135.675781 Z M 57.828125 135.675781 " fill-opacity="1" fill-rule="nonzero"/><path fill="#2a294b" d="M 97.171875 122.355469 L 97.5 126.605469 L 96.707031 126.605469 L 94.96875 122.558594 " fill-opacity="1" fill-rule="nonzero"/><path fill="#2a294b" d="M 94.96875 127.058594 C 94.96875 128.183594 95.882812 129.097656 97.011719 129.097656 C 98.140625 129.097656 99.058594 128.183594 99.058594 127.058594 C 99.058594 125.929688 98.140625 125.019531 97.011719 125.019531 C 95.882812 125.019531 94.96875 125.929688 94.96875 127.058594 Z M 94.96875 127.058594 " fill-opacity="1" fill-rule="nonzero"/><path fill="#fcfaff" d="M 96.125 127.058594 C 96.125 127.546875 96.523438 127.941406 97.011719 127.941406 C 97.5 127.941406 97.898438 127.546875 97.898438 127.058594 C 97.898438 126.570312 97.5 126.175781 97.011719 126.175781 C 96.523438 126.175781 96.125 126.570312 96.125 127.058594 Z M 96.125 127.058594 " fill-opacity="1" fill-rule="nonzero"/><path fill="#2a294b" d="M 74.828125 122.535156 L 74.5 126.789062 L 75.292969 126.789062 L 77.03125 122.738281 " fill-opacity="1" fill-rule="nonzero"/><path fill="#2a294b" d="M 77.03125 127.238281 C 77.03125 128.363281 76.117188 129.277344 74.988281 129.277344 C 73.859375 129.277344 72.945312 128.363281 72.945312 127.238281 C 72.945312 126.113281 73.859375 125.199219 74.988281 125.199219 C 76.117188 125.199219 77.03125 126.113281 77.03125 127.238281 Z M 77.03125 127.238281 " fill-opacity="1" fill-rule="nonzero"/><path fill="#fcfaff" d="M 75.875 127.238281 C 75.875 127.480469 75.789062 127.691406 75.617188 127.863281 C 75.441406 128.035156 75.234375 128.121094 74.988281 128.121094 C 74.742188 128.121094 74.535156 128.035156 74.363281 127.863281 C 74.1875 127.691406 74.101562 127.480469 74.101562 127.238281 C 74.101562 126.992188 74.1875 126.785156 74.363281 126.613281 C 74.535156 126.441406 74.742188 126.355469 74.988281 126.355469 C 75.234375 126.355469 75.441406 126.441406 75.617188 126.613281 C 75.789062 126.785156 75.875 126.992188 75.875 127.238281 Z M 75.875 127.238281 " fill-opacity="1" fill-rule="nonzero"/><path fill="#2a294b" d="M 73.625 122.980469 L 95.910156 122.980469 C 97.75 122.980469 99.25 121.652344 99.25 120.011719 L 99.25 114.800781 C 99.25 114.566406 99.058594 114.375 98.828125 114.375 L 73.628906 114.375 C 73.394531 114.375 73.203125 114.5625 73.203125 114.800781 C 73.203125 115.03125 73.394531 115.222656 73.628906 115.222656 L 98.40625 115.222656 L 98.40625 120.011719 C 98.40625 121.1875 97.285156 122.140625 95.910156 122.140625 L 73.625 122.140625 C 73.390625 122.140625 73.203125 122.328125 73.203125 122.5625 C 73.203125 122.792969 73.390625 122.980469 73.625 122.980469 Z M 73.625 122.980469 " fill-opacity="1" fill-rule="nonzero"/><path fill="#2a294b" d="M 73.628906 123.617188 L 95.910156 123.617188 C 98.097656 123.617188 99.882812 121.996094 99.882812 120.011719 L 99.882812 114.800781 C 99.882812 114.21875 99.40625 113.746094 98.824219 113.746094 L 73.628906 113.746094 C 73.046875 113.746094 72.570312 114.21875 72.570312 114.800781 C 72.570312 115.378906 73.046875 115.851562 73.628906 115.851562 L 97.773438 115.851562 L 97.773438 120.011719 C 97.773438 120.835938 96.9375 121.507812 95.910156 121.507812 L 73.628906 121.507812 C 73.046875 121.507812 72.570312 121.984375 72.570312 122.5625 C 72.570312 123.140625 73.046875 123.617188 73.628906 123.617188 Z M 73.628906 123.617188 " fill-opacity="1" fill-rule="nonzero"/><path fill="#2a294b" d="M 73.625 115.222656 L 98.824219 115.222656 C 99.015625 115.222656 99.183594 115.097656 99.234375 114.914062 L 105.851562 91.570312 L 115.5625 88.648438 C 115.792969 88.597656 115.933594 88.371094 115.886719 88.144531 C 115.835938 87.921875 115.609375 87.777344 115.378906 87.828125 L 105.421875 90.804688 C 105.269531 90.839844 105.148438 90.953125 105.109375 91.101562 L 98.507812 114.382812 L 73.964844 114.382812 L 68.921875 93.605469 C 68.867188 93.378906 68.640625 93.242188 68.410156 93.292969 C 68.1875 93.347656 68.042969 93.574219 68.097656 93.800781 L 73.214844 114.902344 C 73.261719 115.085938 73.429688 115.222656 73.625 115.222656 Z M 73.625 115.222656 " fill-opacity="1" fill-rule="nonzero"/><path fill="#2a294b" d="M 73.628906 115.851562 L 98.824219 115.851562 C 99.296875 115.851562 99.710938 115.539062 99.839844 115.085938 L 106.359375 92.085938 L 115.722656 89.253906 C 115.96875 89.203125 116.207031 89.039062 116.359375 88.800781 C 116.507812 88.5625 116.558594 88.277344 116.496094 88 C 116.4375 87.730469 116.269531 87.5 116.03125 87.34375 C 115.796875 87.195312 115.503906 87.140625 115.230469 87.210938 L 105.25 90.195312 C 104.902344 90.265625 104.601562 90.546875 104.492188 90.921875 L 98.019531 113.75 L 74.449219 113.75 L 69.527344 93.453125 C 69.390625 92.886719 68.835938 92.535156 68.253906 92.675781 C 67.691406 92.816406 67.34375 93.386719 67.480469 93.949219 L 72.59375 115.046875 C 72.71875 115.523438 73.140625 115.851562 73.628906 115.851562 Z M 73.628906 115.851562 " fill-opacity="1" fill-rule="nonzero"/><path fill="#2a294b" d="M 68.613281 94.128906 L 104.566406 94.128906 C 104.800781 94.128906 104.988281 93.941406 104.988281 93.707031 C 104.988281 93.472656 104.800781 93.28125 104.566406 93.28125 L 68.613281 93.28125 C 68.378906 93.28125 68.191406 93.46875 68.191406 93.707031 C 68.191406 93.941406 68.378906 94.128906 68.613281 94.128906 Z M 68.613281 94.128906 " fill-opacity="1" fill-rule="nonzero"/><path fill="#2a294b" d="M 68.613281 94.757812 L 104.566406 94.757812 C 105.144531 94.757812 105.621094 94.285156 105.621094 93.707031 C 105.621094 93.125 105.144531 92.652344 104.566406 92.652344 L 68.613281 92.652344 C 68.03125 92.652344 67.554688 93.125 67.554688 93.707031 C 67.554688 94.289062 68.03125 94.757812 68.613281 94.757812 Z M 68.613281 94.757812 " fill-opacity="1" fill-rule="nonzero"/><path fill="#2a294b" d="M 69.777344 99.351562 L 103.402344 99.351562 C 103.636719 99.351562 103.828125 99.164062 103.828125 98.929688 C 103.828125 98.695312 103.636719 98.503906 103.402344 98.503906 L 69.777344 98.503906 C 69.542969 98.503906 69.351562 98.691406 69.351562 98.929688 C 69.351562 99.164062 69.542969 99.351562 69.777344 99.351562 Z M 69.777344 99.351562 " fill-opacity="1" fill-rule="nonzero"/><path fill="#2a294b" d="M 69.777344 99.980469 L 103.402344 99.980469 C 103.984375 99.980469 104.457031 99.511719 104.457031 98.933594 C 104.457031 98.351562 103.980469 97.878906 103.402344 97.878906 L 69.777344 97.878906 C 69.199219 97.878906 68.722656 98.351562 68.722656 98.933594 C 68.722656 99.511719 69.199219 99.980469 69.777344 99.980469 Z M 69.777344 99.980469 " fill-opacity="1" fill-rule="nonzero"/><path fill="#2a294b" d="M 71.277344 104.308594 L 101.488281 104.308594 C 101.71875 104.308594 101.910156 104.121094 101.910156 103.886719 C 101.910156 103.652344 101.71875 103.460938 101.488281 103.460938 L 71.277344 103.460938 C 71.039062 103.460938 70.851562 103.648438 70.851562 103.886719 C 70.851562 104.121094 71.039062 104.308594 71.277344 104.308594 Z M 71.277344 104.308594 " fill-opacity="1" fill-rule="nonzero"/><path fill="#2a294b" d="M 71.277344 104.941406 L 101.488281 104.941406 C 102.070312 104.941406 102.542969 104.46875 102.542969 103.886719 C 102.542969 103.308594 102.070312 102.839844 101.488281 102.839844 L 71.277344 102.839844 C 70.695312 102.839844 70.21875 103.308594 70.21875 103.886719 C 70.21875 104.46875 70.695312 104.941406 71.277344 104.941406 Z M 71.277344 104.941406 " fill-opacity="1" fill-rule="nonzero"/><path fill="#2a294b" d="M 72.464844 109.6875 L 100.25 109.6875 C 100.484375 109.6875 100.675781 109.496094 100.675781 109.265625 C 100.675781 109.03125 100.484375 108.839844 100.25 108.839844 L 72.464844 108.839844 C 72.230469 108.839844 72.042969 109.027344 72.042969 109.265625 C 72.042969 109.5 72.230469 109.6875 72.464844 109.6875 Z M 72.464844 109.6875 " fill-opacity="1" fill-rule="nonzero"/><path fill="#2a294b" d="M 72.464844 110.320312 L 100.25 110.320312 C 100.832031 110.320312 101.308594 109.847656 101.308594 109.265625 C 101.308594 108.6875 100.832031 108.214844 100.25 108.214844 L 72.464844 108.214844 C 71.886719 108.214844 71.410156 108.6875 71.410156 109.265625 C 71.410156 109.847656 71.886719 110.320312 72.464844 110.320312 Z M 72.464844 110.320312 " fill-opacity="1" fill-rule="nonzero"/><path fill="#2a294b" d="M 93.734375 115.222656 C 93.929688 115.222656 94.109375 115.082031 94.148438 114.882812 L 98.390625 93.792969 C 98.4375 93.5625 98.292969 93.339844 98.058594 93.296875 C 97.832031 93.25 97.609375 93.398438 97.5625 93.625 L 93.316406 114.714844 C 93.273438 114.945312 93.421875 115.167969 93.648438 115.210938 C 93.679688 115.21875 93.710938 115.222656 93.734375 115.222656 Z M 93.734375 115.222656 " fill-opacity="1" fill-rule="nonzero"/><path fill="#2a294b" d="M 93.734375 115.851562 C 94.234375 115.851562 94.671875 115.496094 94.765625 115 L 99.007812 93.917969 C 99.0625 93.636719 99.003906 93.355469 98.847656 93.125 C 98.691406 92.890625 98.449219 92.726562 98.175781 92.675781 C 97.898438 92.617188 97.625 92.679688 97.390625 92.832031 C 97.15625 92.988281 96.996094 93.222656 96.941406 93.5 L 92.699219 114.589844 C 92.640625 114.867188 92.699219 115.152344 92.855469 115.382812 C 93.011719 115.621094 93.253906 115.78125 93.527344 115.832031 Z M 93.734375 115.851562 " fill-opacity="1" fill-rule="nonzero"/><path fill="#2a294b" d="M 86.222656 115.222656 C 86.457031 115.222656 86.648438 115.035156 86.648438 114.800781 L 86.804688 93.710938 C 86.804688 93.480469 86.617188 93.289062 86.382812 93.285156 L 86.378906 93.285156 C 86.148438 93.285156 85.957031 93.472656 85.957031 93.707031 L 85.800781 114.796875 C 85.800781 115.027344 85.988281 115.21875 86.222656 115.222656 Z M 86.222656 115.222656 " fill-opacity="1" fill-rule="nonzero"/><path fill="#2a294b" d="M 86.222656 115.851562 C 86.804688 115.851562 87.273438 115.382812 87.28125 114.808594 L 87.4375 93.714844 C 87.441406 93.136719 86.976562 92.660156 86.394531 92.652344 C 85.808594 92.652344 85.335938 93.121094 85.332031 93.695312 L 85.175781 114.789062 C 85.171875 115.367188 85.636719 115.84375 86.21875 115.851562 Z M 86.222656 115.851562 " fill-opacity="1" fill-rule="nonzero"/><path fill="#fcfaff" d="M 78.382812 115.222656 C 78.402344 115.222656 78.425781 115.21875 78.445312 115.21875 C 78.675781 115.183594 78.835938 114.96875 78.800781 114.738281 L 75.640625 93.648438 C 75.605469 93.421875 75.390625 93.265625 75.160156 93.296875 C 74.925781 93.332031 74.765625 93.546875 74.800781 93.773438 L 77.964844 114.863281 C 77.996094 115.070312 78.175781 115.222656 78.382812 115.222656 Z M 78.382812 115.222656 " fill-opacity="1" fill-rule="nonzero"/><path fill="#2a294b" d="M 78.382812 115.851562 L 78.507812 115.84375 C 78.816406 115.796875 79.0625 115.652344 79.226562 115.425781 C 79.394531 115.199219 79.464844 114.921875 79.421875 114.644531 L 76.257812 93.550781 C 76.171875 92.976562 75.65625 92.585938 75.074219 92.664062 C 74.78125 92.707031 74.535156 92.851562 74.367188 93.082031 C 74.203125 93.308594 74.132812 93.585938 74.175781 93.863281 L 77.335938 114.953125 C 77.421875 115.476562 77.855469 115.851562 78.382812 115.851562 Z M 78.382812 115.851562 " fill-opacity="1" fill-rule="nonzero"/><path fill="#e7e2fd" d="M 150.792969 145.296875 L 227.84375 145.296875 L 227.84375 220.765625 L 150.792969 220.765625 Z M 150.792969 145.296875 " fill-opacity="1" fill-rule="nonzero"/><path fill="#9898d8" d="M 173.457031 184.898438 L 166.976562 197.324219 L 168.507812 198.082031 L 167.707031 199.871094 C 167.707031 199.871094 172.117188 201.609375 174.921875 201.609375 L 174.921875 203.046875 C 174.921875 203.046875 176.261719 204.953125 182.777344 203.851562 C 186.386719 203.75 187.292969 203.550781 187.292969 203.550781 L 187.292969 202.644531 C 187.292969 202.644531 189.496094 204.351562 194.011719 203.148438 L 192.207031 168.03125 " fill-opacity="1" fill-rule="nonzero"/><path fill="#9898d8" d="M 205.179688 184.898438 L 211.660156 197.324219 L 210.128906 198.082031 L 210.933594 199.871094 C 210.933594 199.871094 206.523438 201.609375 203.714844 201.609375 L 203.714844 203.046875 C 203.714844 203.046875 202.378906 204.953125 195.859375 203.851562 C 192.25 203.75 191.347656 203.550781 191.347656 203.550781 L 191.347656 202.644531 C 191.347656 202.644531 189.140625 204.351562 184.628906 203.148438 L 186.433594 168.03125 " fill-opacity="1" fill-rule="nonzero"/><path fill="#585caf" d="M 178.003906 168.023438 L 178.003906 172.171875 L 169.980469 188.585938 C 169.980469 188.585938 176.363281 194.582031 191.636719 192.777344 L 190.703125 168.027344 " fill-opacity="1" fill-rule="nonzero"/><path fill="#585caf" d="M 200.636719 168.023438 L 200.636719 172.171875 L 208.660156 188.585938 C 208.660156 188.585938 200.332031 195.003906 187 192.777344 L 187.9375 168.027344 " fill-opacity="1" fill-rule="nonzero"/><g fill="#181d23" fill-opacity="1"><g transform="translate(150.79523, 233.609634)"><g><path d="M 1.96875 0.078125 C 1.675781 0.078125 1.367188 0.046875 1.046875 -0.015625 C 0.734375 -0.078125 0.503906 -0.140625 0.359375 -0.203125 L 0.359375 -1.515625 L 0.625 -1.515625 L 0.765625 -0.734375 C 0.847656 -0.617188 1.003906 -0.507812 1.234375 -0.40625 C 1.472656 -0.3125 1.71875 -0.257812 1.96875 -0.25 L 1.96875 -2.546875 C 1.644531 -2.660156 1.414062 -2.75 1.28125 -2.8125 C 1.144531 -2.875 1.023438 -2.941406 0.921875 -3.015625 C 0.828125 -3.097656 0.738281 -3.191406 0.65625 -3.296875 C 0.582031 -3.398438 0.523438 -3.519531 0.484375 -3.65625 C 0.453125 -3.800781 0.4375 -3.957031 0.4375 -4.125 C 0.4375 -4.507812 0.570312 -4.828125 0.84375 -5.078125 C 1.125 -5.328125 1.5 -5.46875 1.96875 -5.5 L 1.96875 -6.03125 L 2.296875 -6.03125 L 2.296875 -5.515625 C 2.710938 -5.492188 3.128906 -5.4375 3.546875 -5.34375 L 3.546875 -4.203125 L 3.28125 -4.203125 L 3.171875 -4.875 C 3.085938 -4.945312 2.960938 -5.007812 2.796875 -5.0625 C 2.628906 -5.125 2.460938 -5.160156 2.296875 -5.171875 L 2.296875 -3.234375 L 2.6875 -3.09375 C 3.132812 -2.925781 3.453125 -2.722656 3.640625 -2.484375 C 3.828125 -2.242188 3.921875 -1.941406 3.921875 -1.578125 C 3.921875 -1.097656 3.773438 -0.710938 3.484375 -0.421875 C 3.191406 -0.128906 2.796875 0.03125 2.296875 0.0625 L 2.296875 0.640625 L 1.96875 0.640625 Z M 3.234375 -1.34375 C 3.234375 -1.59375 3.164062 -1.800781 3.03125 -1.96875 C 2.894531 -2.132812 2.648438 -2.285156 2.296875 -2.421875 L 2.296875 -0.265625 C 2.597656 -0.316406 2.828125 -0.429688 2.984375 -0.609375 C 3.148438 -0.785156 3.234375 -1.03125 3.234375 -1.34375 Z M 1.125 -4.34375 C 1.125 -4.175781 1.148438 -4.035156 1.203125 -3.921875 C 1.253906 -3.816406 1.328125 -3.722656 1.421875 -3.640625 C 1.523438 -3.554688 1.707031 -3.460938 1.96875 -3.359375 L 1.96875 -5.15625 C 1.695312 -5.125 1.488281 -5.035156 1.34375 -4.890625 C 1.195312 -4.742188 1.125 -4.5625 1.125 -4.34375 Z M 1.125 -4.34375 "/></g></g></g><g fill="#181d23" fill-opacity="1"><g transform="translate(154.971852, 233.609634)"><g><path d="M 3.859375 -2.75 C 3.859375 -0.863281 3.257812 0.078125 2.0625 0.078125 C 1.488281 0.078125 1.050781 -0.160156 0.75 -0.640625 C 0.457031 -1.117188 0.3125 -1.820312 0.3125 -2.75 C 0.3125 -3.65625 0.457031 -4.34375 0.75 -4.8125 C 1.050781 -5.289062 1.5 -5.53125 2.09375 -5.53125 C 2.675781 -5.53125 3.113281 -5.296875 3.40625 -4.828125 C 3.707031 -4.359375 3.859375 -3.664062 3.859375 -2.75 Z M 3.109375 -2.75 C 3.109375 -3.625 3.023438 -4.253906 2.859375 -4.640625 C 2.691406 -5.023438 2.425781 -5.21875 2.0625 -5.21875 C 1.707031 -5.21875 1.453125 -5.035156 1.296875 -4.671875 C 1.140625 -4.304688 1.0625 -3.664062 1.0625 -2.75 C 1.0625 -1.820312 1.140625 -1.171875 1.296875 -0.796875 C 1.460938 -0.421875 1.71875 -0.234375 2.0625 -0.234375 C 2.425781 -0.234375 2.691406 -0.429688 2.859375 -0.828125 C 3.023438 -1.222656 3.109375 -1.863281 3.109375 -2.75 Z M 3.109375 -2.75 "/></g></g></g><g fill="#181d23" fill-opacity="1"><g transform="translate(159.148475, 233.609634)"><g><path d="M 1.53125 -0.375 C 1.53125 -0.238281 1.484375 -0.117188 1.390625 -0.015625 C 1.296875 0.078125 1.179688 0.125 1.046875 0.125 C 0.898438 0.125 0.78125 0.078125 0.6875 -0.015625 C 0.59375 -0.117188 0.546875 -0.238281 0.546875 -0.375 C 0.546875 -0.507812 0.59375 -0.625 0.6875 -0.71875 C 0.789062 -0.8125 0.910156 -0.859375 1.046875 -0.859375 C 1.179688 -0.859375 1.296875 -0.8125 1.390625 -0.71875 C 1.484375 -0.625 1.53125 -0.507812 1.53125 -0.375 Z M 1.53125 -0.375 "/></g></g></g><g fill="#181d23" fill-opacity="1"><g transform="translate(161.236786, 233.609634)"><g><path d="M 3.859375 -2.75 C 3.859375 -0.863281 3.257812 0.078125 2.0625 0.078125 C 1.488281 0.078125 1.050781 -0.160156 0.75 -0.640625 C 0.457031 -1.117188 0.3125 -1.820312 0.3125 -2.75 C 0.3125 -3.65625 0.457031 -4.34375 0.75 -4.8125 C 1.050781 -5.289062 1.5 -5.53125 2.09375 -5.53125 C 2.675781 -5.53125 3.113281 -5.296875 3.40625 -4.828125 C 3.707031 -4.359375 3.859375 -3.664062 3.859375 -2.75 Z M 3.109375 -2.75 C 3.109375 -3.625 3.023438 -4.253906 2.859375 -4.640625 C 2.691406 -5.023438 2.425781 -5.21875 2.0625 -5.21875 C 1.707031 -5.21875 1.453125 -5.035156 1.296875 -4.671875 C 1.140625 -4.304688 1.0625 -3.664062 1.0625 -2.75 C 1.0625 -1.820312 1.140625 -1.171875 1.296875 -0.796875 C 1.460938 -0.421875 1.71875 -0.234375 2.0625 -0.234375 C 2.425781 -0.234375 2.691406 -0.429688 2.859375 -0.828125 C 3.023438 -1.222656 3.109375 -1.863281 3.109375 -2.75 Z M 3.109375 -2.75 "/></g></g></g><g fill="#181d23" fill-opacity="1"><g transform="translate(165.413409, 233.609634)"><g><path d="M 3.859375 -2.75 C 3.859375 -0.863281 3.257812 0.078125 2.0625 0.078125 C 1.488281 0.078125 1.050781 -0.160156 0.75 -0.640625 C 0.457031 -1.117188 0.3125 -1.820312 0.3125 -2.75 C 0.3125 -3.65625 0.457031 -4.34375 0.75 -4.8125 C 1.050781 -5.289062 1.5 -5.53125 2.09375 -5.53125 C 2.675781 -5.53125 3.113281 -5.296875 3.40625 -4.828125 C 3.707031 -4.359375 3.859375 -3.664062 3.859375 -2.75 Z M 3.109375 -2.75 C 3.109375 -3.625 3.023438 -4.253906 2.859375 -4.640625 C 2.691406 -5.023438 2.425781 -5.21875 2.0625 -5.21875 C 1.707031 -5.21875 1.453125 -5.035156 1.296875 -4.671875 C 1.140625 -4.304688 1.0625 -3.664062 1.0625 -2.75 C 1.0625 -1.820312 1.140625 -1.171875 1.296875 -0.796875 C 1.460938 -0.421875 1.71875 -0.234375 2.0625 -0.234375 C 2.425781 -0.234375 2.691406 -0.429688 2.859375 -0.828125 C 3.023438 -1.222656 3.109375 -1.863281 3.109375 -2.75 Z M 3.109375 -2.75 "/></g></g></g><path fill="#e7e2fd" d="M 188.71875 224.78125 L 197.355469 224.78125 L 197.355469 233.425781 L 188.71875 233.425781 Z M 188.71875 224.78125 " fill-opacity="1" fill-rule="nonzero"/><path fill="#e7e2fd" d="M 203.960938 224.78125 L 212.601562 224.78125 L 212.601562 233.425781 L 203.960938 233.425781 Z M 203.960938 224.78125 " fill-opacity="1" fill-rule="nonzero"/><path fill="#e7e2fd" d="M 219.207031 224.78125 L 227.847656 224.78125 L 227.847656 233.425781 L 219.207031 233.425781 Z M 219.207031 224.78125 " fill-opacity="1" fill-rule="nonzero"/><path fill="#181d23" d="M 148.890625 121.980469 L 161.757812 121.980469 L 161.757812 123.574219 L 148.890625 123.574219 Z M 148.890625 121.980469 " fill-opacity="1" fill-rule="nonzero"/><path fill="#181d23" d="M 148.890625 125.441406 L 161.757812 125.441406 L 161.757812 127.035156 L 148.890625 127.035156 Z M 148.890625 125.441406 " fill-opacity="1" fill-rule="nonzero"/><path fill="#181d23" d="M 148.890625 128.90625 L 161.757812 128.90625 L 161.757812 130.5 L 148.890625 130.5 Z M 148.890625 128.90625 " fill-opacity="1" fill-rule="nonzero"/><path fill="#ef6f9d" d="M 160.347656 272.191406 L 134.996094 272.191406 L 134.996094 260.964844 C 134.996094 253.972656 140.683594 248.28125 147.671875 248.28125 C 154.660156 248.28125 160.347656 253.972656 160.347656 260.964844 Z M 137.761719 269.417969 L 157.578125 269.417969 L 157.578125 260.960938 C 157.578125 255.496094 153.132812 251.050781 147.671875 251.050781 C 142.210938 251.050781 137.761719 255.496094 137.761719 260.960938 Z M 137.761719 269.417969 " fill-opacity="1" fill-rule="nonzero"/><path fill="#ef6f9d" d="M 177.625 310.234375 L 117.71875 310.234375 L 126.277344 267.414062 L 169.066406 267.414062 Z M 177.625 310.234375 " fill-opacity="1" fill-rule="nonzero"/><path fill="#ef6f9d" d="M 177.625 310.234375 L 156.585938 310.234375 L 156.585938 267.414062 L 169.066406 267.414062 Z M 177.625 310.234375 " fill-opacity="1" fill-rule="nonzero"/><path fill="#ffffff" d="M 134.628906 203.136719 L 40.246094 203.136719 C 40.113281 203.136719 40.011719 203.035156 40.011719 202.902344 L 40.011719 183.589844 C 40.011719 183.457031 40.113281 183.355469 40.246094 183.355469 L 134.625 183.355469 C 134.757812 183.355469 134.859375 183.457031 134.859375 183.589844 L 134.859375 202.902344 C 134.859375 203.03125 134.757812 203.136719 134.628906 203.136719 Z M 134.628906 203.136719 " fill-opacity="1" fill-rule="nonzero"/><path fill="#ffc043" d="M 55.726562 188.429688 L 56.921875 192.105469 L 60.789062 192.105469 L 57.660156 194.382812 L 58.855469 198.058594 L 55.726562 195.785156 L 52.601562 198.058594 L 53.792969 194.382812 L 50.667969 192.105469 L 54.53125 192.105469 Z M 55.726562 188.429688 " fill-opacity="1" fill-rule="nonzero"/><path fill="#ffc043" d="M 71.125 188.429688 L 72.320312 192.105469 L 76.1875 192.105469 L 73.058594 194.382812 L 74.253906 198.058594 L 71.125 195.785156 L 68 198.058594 L 69.195312 194.382812 L 66.066406 192.105469 L 69.933594 192.105469 Z M 71.125 188.429688 " fill-opacity="1" fill-rule="nonzero"/><path fill="#ffc043" d="M 86.527344 188.429688 L 87.71875 192.105469 L 91.585938 192.105469 L 88.457031 194.382812 L 89.652344 198.058594 L 86.527344 195.785156 L 83.398438 198.058594 L 84.59375 194.382812 L 81.464844 192.105469 L 85.332031 192.105469 Z M 86.527344 188.429688 " fill-opacity="1" fill-rule="nonzero"/><path fill="#ffc043" d="M 101.921875 188.429688 L 103.117188 192.105469 L 106.980469 192.105469 L 103.855469 194.382812 L 105.050781 198.058594 L 101.921875 195.785156 L 98.792969 198.058594 L 99.988281 194.382812 L 96.859375 192.105469 L 100.726562 192.105469 Z M 101.921875 188.429688 " fill-opacity="1" fill-rule="nonzero"/><path fill="#ffc043" d="M 117.320312 188.429688 L 118.515625 192.105469 L 122.378906 192.105469 L 119.253906 194.382812 L 120.449219 198.058594 L 117.320312 195.785156 L 114.191406 198.058594 L 115.386719 194.382812 L 112.261719 192.105469 L 116.125 192.105469 Z M 117.320312 188.429688 " fill-opacity="1" fill-rule="nonzero"/><path fill="#ffffff" d="M 224.933594 96.332031 L 177.792969 96.332031 C 177.699219 96.332031 177.625 96.257812 177.625 96.164062 L 177.625 58.675781 C 177.625 58.582031 177.699219 58.507812 177.792969 58.507812 L 224.933594 58.507812 C 225.027344 58.507812 225.105469 58.582031 225.105469 58.675781 L 225.105469 96.164062 C 225.101562 96.257812 225.027344 96.332031 224.933594 96.332031 Z M 224.933594 96.332031 " fill-opacity="1" fill-rule="nonzero"/><path fill="#ffffff" d="M 213.152344 91.332031 C 213.867188 91.371094 222.691406 103.054688 222.691406 103.054688 L 222.691406 91.332031 " fill-opacity="1" fill-rule="nonzero"/><path fill="#585caf" d="M 182.007812 65.515625 L 220.71875 65.515625 L 220.71875 66.589844 L 182.007812 66.589844 Z M 182.007812 65.515625 " fill-opacity="1" fill-rule="nonzero"/><path fill="#585caf" d="M 182.007812 72.210938 L 220.71875 72.210938 L 220.71875 73.28125 L 182.007812 73.28125 Z M 182.007812 72.210938 " fill-opacity="1" fill-rule="nonzero"/><path fill="#585caf" d="M 182.007812 78.898438 L 220.71875 78.898438 L 220.71875 79.96875 L 182.007812 79.96875 Z M 182.007812 78.898438 " fill-opacity="1" fill-rule="nonzero"/><path fill="#585caf" d="M 182.007812 85.589844 L 220.71875 85.589844 L 220.71875 86.660156 L 182.007812 86.660156 Z M 182.007812 85.589844 " fill-opacity="1" fill-rule="nonzero"/><path fill="#f9c1a2" d="M 246.617188 145.757812 C 246.617188 145.757812 242.152344 140.398438 241 138.867188 C 239.851562 137.335938 241.765625 129.160156 242.789062 129.289062 C 243.808594 129.417969 244.867188 137.167969 244.867188 137.167969 C 244.867188 137.167969 250.320312 139.886719 249.425781 144.613281 " fill-opacity="1" fill-rule="nonzero"/><path fill="#28343d" d="M 246.375 140.011719 L 243.460938 140.011719 C 243.441406 140.011719 243.425781 139.992188 243.425781 139.976562 L 243.425781 117.132812 C 243.425781 117.109375 243.441406 117.097656 243.460938 117.097656 L 246.375 117.097656 C 246.398438 117.097656 246.410156 117.113281 246.410156 117.132812 L 246.410156 139.976562 C 246.410156 139.996094 246.398438 140.011719 246.375 140.011719 Z M 246.375 140.011719 " fill-opacity="1" fill-rule="nonzero"/><path fill="#f9c1a2" d="M 293.6875 289.546875 L 293.6875 301.089844 L 300.640625 301.089844 L 300.640625 285.84375 " fill-opacity="1" fill-rule="nonzero"/><path fill="#28343d" d="M 300.640625 301.089844 C 300.640625 301.089844 303.40625 308.40625 302.335938 309.207031 C 301.265625 310.007812 289.5 310.96875 288.695312 309.363281 C 287.890625 307.757812 293.6875 301.089844 293.6875 301.089844 " fill-opacity="1" fill-rule="nonzero"/><path fill="#f9c1a2" d="M 278.347656 282.757812 L 281.855469 294.808594 C 281.855469 294.808594 286.800781 295.859375 287.652344 293.042969 L 284.324219 277.339844 " fill-opacity="1" fill-rule="nonzero"/><path fill="#28343d" d="M 281.859375 294.808594 C 281.859375 294.808594 271.074219 303.476562 274.015625 305.410156 C 276.957031 307.339844 290.074219 298.34375 290.144531 296.917969 C 290.210938 295.492188 287.699219 292.152344 287.699219 292.152344 " fill-opacity="1" fill-rule="nonzero"/><path fill="#28343d" d="M 282.707031 108.441406 C 282.851562 106.699219 285.019531 105.949219 286.765625 105.976562 C 290.285156 106.03125 293.757812 107.570312 296.164062 110.136719 C 298.574219 112.707031 299.882812 116.273438 299.710938 119.789062 C 299.609375 121.804688 299.0625 123.894531 299.753906 125.785156 C 300.203125 127.011719 301.132812 128.011719 301.621094 129.222656 C 302.582031 131.605469 301.59375 134.46875 299.695312 136.195312 C 297.796875 137.921875 295.164062 138.640625 292.605469 138.75 C 287.648438 138.964844 282.574219 136.933594 279.359375 133.152344 C 278.277344 131.875 277.382812 130.367188 277.164062 128.703125 C 277.082031 128.078125 277.097656 127.4375 277.003906 126.816406 C 276.886719 126.007812 276.589844 125.238281 276.347656 124.460938 C 275.039062 120.28125 275.21875 115.652344 276.847656 111.585938 C 277.339844 110.347656 278.019531 109.105469 279.167969 108.429688 C 280.3125 107.753906 282.796875 107.34375 283.304688 108.058594 " fill-opacity="1" fill-rule="nonzero"/><path fill="#f9c1a2" d="M 292.160156 125.800781 C 292.160156 125.800781 292.960938 132.15625 294.585938 134.167969 L 283.234375 145.757812 L 282.808594 134.25 C 282.808594 134.25 282.773438 132.449219 282.042969 129.027344 " fill-opacity="1" fill-rule="nonzero"/><path fill="#f4b08e" d="M 291.875 127.898438 L 281.859375 128.207031 C 282.5625 132.257812 286.539062 137.671875 291.875 127.898438 Z M 291.875 127.898438 " fill-opacity="1" fill-rule="nonzero"/><path fill="#f9c1a2" d="M 283.613281 111.425781 C 283.613281 111.425781 278.824219 113.519531 278.46875 115.308594 C 277.519531 120.175781 277.367188 129.023438 284.636719 131.828125 C 289.597656 133.125 292.191406 127.828125 293.492188 124.9375 C 293.492188 124.9375 295.46875 125.746094 296.300781 121.164062 C 296.921875 117.734375 293.59375 117.8125 293.015625 121.773438 L 292.621094 121.167969 C 292.621094 121.167969 292.4375 118.363281 292.007812 117.792969 C 292.007812 117.792969 290.917969 116.125 287.121094 114.03125 C 284.511719 112.589844 283.613281 111.425781 283.613281 111.425781 Z M 283.613281 111.425781 " fill-opacity="1" fill-rule="nonzero"/><path fill="#585caf" d="M 303.3125 174.996094 C 303.3125 174.996094 308.316406 186.457031 307.722656 200.144531 C 307.132812 213.828125 304.222656 243.246094 304.222656 243.246094 L 301.796875 294.578125 L 292.710938 294.578125 C 292.710938 294.578125 289.617188 248.136719 288.46875 233.421875 C 287.328125 218.710938 285.992188 183.839844 285.992188 183.839844 " fill-opacity="1" fill-rule="nonzero"/><path fill="#585caf" d="M 298.125 179.722656 L 280.101562 235.898438 L 287.273438 286.089844 L 279.425781 289.546875 C 279.425781 289.546875 264.199219 244.660156 265.613281 230.632812 C 267.496094 211.902344 277.703125 172.082031 277.703125 172.082031 " fill-opacity="1" fill-rule="nonzero"/><path fill="#ffc043" d="M 278.09375 135.957031 C 274.964844 138.347656 266.320312 157.570312 266.320312 157.570312 C 266.320312 157.570312 255.699219 145.472656 252.246094 140.199219 L 245.082031 145.761719 C 245.082031 145.761719 260.394531 170.71875 268.292969 170.71875 C 274.21875 170.71875 283.238281 152.0625 283.238281 152.0625 " fill-opacity="1" fill-rule="nonzero"/><path fill="#ffc043" d="M 282.808594 134.25 C 282.808594 134.25 279.621094 134.753906 277.65625 136.183594 C 275.695312 137.613281 273.199219 147.421875 273.199219 154.203125 C 273.199219 160.980469 276.765625 162.765625 276.765625 162.765625 C 276.941406 169.726562 270.765625 190.78125 270.765625 190.78125 C 293.5 201.21875 310.992188 192.5 310.992188 192.5 C 305.800781 170.242188 307.660156 139.304688 303.917969 136.363281 C 300.171875 133.421875 294.355469 133.988281 294.355469 133.988281 L 283.238281 145.0625 Z M 282.808594 134.25 " fill-opacity="1" fill-rule="nonzero"/><path fill="#f9c1a2" d="M 277.5625 161.710938 C 277.5625 161.710938 265.664062 152.9375 264.777344 153.339844 C 263.890625 153.742188 269.148438 159.121094 269.148438 159.121094 C 269.148438 159.121094 268.445312 160.675781 268.046875 163.621094 C 267.644531 166.5625 276.414062 167.835938 276.414062 167.835938 " fill-opacity="1" fill-rule="nonzero"/><path fill="#ffc043" d="M 304.480469 137.089844 C 308.492188 142.976562 314.519531 174.769531 309.304688 177.222656 C 305.230469 179.140625 274.9375 169.015625 274.9375 169.015625 L 276.410156 160.320312 L 299.605469 166.074219 C 299.605469 166.074219 293.929688 150.839844 295.398438 142.523438 " fill-opacity="1" fill-rule="nonzero"/><path fill="#ef6f9d" d="M 264.945312 121.378906 C 264.945312 121.695312 264.914062 122.011719 264.847656 122.324219 C 264.78125 122.636719 264.683594 122.941406 264.554688 123.234375 C 264.425781 123.53125 264.269531 123.808594 264.082031 124.074219 C 263.894531 124.339844 263.683594 124.585938 263.445312 124.8125 C 263.207031 125.035156 262.949219 125.238281 262.667969 125.414062 C 262.390625 125.589844 262.09375 125.742188 261.78125 125.863281 C 261.472656 125.984375 261.152344 126.078125 260.820312 126.140625 C 260.492188 126.203125 260.160156 126.234375 259.824219 126.234375 C 259.484375 126.234375 259.152344 126.203125 258.824219 126.140625 C 258.492188 126.078125 258.171875 125.984375 257.863281 125.863281 C 257.550781 125.742188 257.257812 125.589844 256.976562 125.414062 C 256.695312 125.238281 256.4375 125.035156 256.199219 124.8125 C 255.960938 124.585938 255.75 124.339844 255.5625 124.074219 C 255.375 123.808594 255.21875 123.53125 255.089844 123.234375 C 254.960938 122.941406 254.863281 122.636719 254.796875 122.324219 C 254.734375 122.011719 254.699219 121.695312 254.699219 121.378906 C 254.699219 121.058594 254.734375 120.742188 254.796875 120.429688 C 254.863281 120.117188 254.960938 119.8125 255.089844 119.519531 C 255.21875 119.222656 255.375 118.945312 255.5625 118.679688 C 255.75 118.414062 255.960938 118.167969 256.199219 117.945312 C 256.4375 117.71875 256.695312 117.515625 256.976562 117.339844 C 257.257812 117.164062 257.550781 117.011719 257.863281 116.890625 C 258.171875 116.769531 258.492188 116.675781 258.824219 116.613281 C 259.152344 116.550781 259.484375 116.523438 259.824219 116.523438 C 260.160156 116.523438 260.492188 116.550781 260.820312 116.613281 C 261.152344 116.675781 261.472656 116.769531 261.78125 116.890625 C 262.09375 117.011719 262.390625 117.164062 262.667969 117.339844 C 262.949219 117.515625 263.207031 117.71875 263.445312 117.945312 C 263.683594 118.167969 263.894531 118.414062 264.082031 118.679688 C 264.269531 118.945312 264.425781 119.222656 264.554688 119.519531 C 264.683594 119.8125 264.78125 120.117188 264.847656 120.429688 C 264.914062 120.742188 264.945312 121.058594 264.945312 121.378906 Z M 264.945312 121.378906 " fill-opacity="1" fill-rule="nonzero"/><path fill="#ffffff" d="M 262.25 121.800781 L 260.390625 121.800781 L 260.390625 123.542969 L 259.265625 123.542969 L 259.265625 121.800781 L 257.40625 121.800781 L 257.40625 120.804688 L 259.265625 120.804688 L 259.265625 119.0625 L 260.390625 119.0625 L 260.390625 120.804688 L 262.25 120.804688 Z M 262.25 121.800781 " fill-opacity="1" fill-rule="nonzero"/><path fill="#9090dd" d="M 254.929688 102.675781 C 254.929688 103.277344 254.867188 103.875 254.742188 104.464844 C 254.617188 105.058594 254.433594 105.632812 254.191406 106.1875 C 253.949219 106.746094 253.648438 107.273438 253.296875 107.777344 C 252.941406 108.277344 252.542969 108.742188 252.09375 109.167969 C 251.640625 109.59375 251.152344 109.972656 250.625 110.308594 C 250.097656 110.644531 249.539062 110.925781 248.949219 111.15625 C 248.363281 111.386719 247.757812 111.5625 247.132812 111.679688 C 246.511719 111.796875 245.878906 111.855469 245.246094 111.855469 C 244.609375 111.855469 243.980469 111.796875 243.355469 111.679688 C 242.730469 111.5625 242.125 111.386719 241.539062 111.15625 C 240.949219 110.925781 240.394531 110.644531 239.863281 110.308594 C 239.335938 109.972656 238.847656 109.59375 238.398438 109.167969 C 237.945312 108.742188 237.546875 108.277344 237.191406 107.777344 C 236.839844 107.273438 236.539062 106.746094 236.296875 106.1875 C 236.054688 105.632812 235.871094 105.058594 235.746094 104.464844 C 235.621094 103.875 235.558594 103.277344 235.558594 102.675781 C 235.558594 102.074219 235.621094 101.476562 235.746094 100.882812 C 235.871094 100.292969 236.054688 99.71875 236.296875 99.160156 C 236.539062 98.605469 236.839844 98.074219 237.191406 97.574219 C 237.546875 97.074219 237.945312 96.609375 238.398438 96.183594 C 238.847656 95.757812 239.335938 95.375 239.863281 95.042969 C 240.394531 94.707031 240.949219 94.421875 241.539062 94.191406 C 242.125 93.960938 242.730469 93.789062 243.355469 93.671875 C 243.980469 93.554688 244.609375 93.496094 245.246094 93.496094 C 245.878906 93.496094 246.511719 93.554688 247.132812 93.671875 C 247.757812 93.789062 248.363281 93.960938 248.949219 94.191406 C 249.539062 94.421875 250.097656 94.707031 250.625 95.042969 C 251.152344 95.375 251.640625 95.757812 252.09375 96.183594 C 252.542969 96.609375 252.941406 97.074219 253.296875 97.574219 C 253.648438 98.074219 253.949219 98.605469 254.191406 99.160156 C 254.433594 99.71875 254.617188 100.292969 254.742188 100.882812 C 254.867188 101.476562 254.929688 102.074219 254.929688 102.675781 Z M 254.929688 102.675781 " fill-opacity="1" fill-rule="nonzero"/><g fill="#ffffff" fill-opacity="1"><g transform="translate(240.282411, 106.385883)"><g><path d="M 2.515625 0.109375 L 1.890625 0.109375 L 7.296875 -7.375 L 7.9375 -7.375 Z M 4.125 -5.390625 C 4.125 -4.046875 3.492188 -3.375 2.234375 -3.375 C 1.617188 -3.375 1.160156 -3.546875 0.859375 -3.890625 C 0.554688 -4.234375 0.40625 -4.734375 0.40625 -5.390625 C 0.40625 -6.710938 1.023438 -7.375 2.265625 -7.375 C 2.867188 -7.375 3.328125 -7.207031 3.640625 -6.875 C 3.960938 -6.539062 4.125 -6.046875 4.125 -5.390625 Z M 3.234375 -5.390625 C 3.234375 -5.941406 3.148438 -6.34375 2.984375 -6.59375 C 2.828125 -6.851562 2.578125 -6.984375 2.234375 -6.984375 C 1.898438 -6.984375 1.65625 -6.859375 1.5 -6.609375 C 1.351562 -6.367188 1.28125 -5.960938 1.28125 -5.390625 C 1.28125 -4.796875 1.359375 -4.375 1.515625 -4.125 C 1.671875 -3.882812 1.910156 -3.765625 2.234375 -3.765625 C 2.578125 -3.765625 2.828125 -3.894531 2.984375 -4.15625 C 3.148438 -4.414062 3.234375 -4.828125 3.234375 -5.390625 Z M 9.34375 -1.875 C 9.34375 -0.53125 8.71875 0.140625 7.46875 0.140625 C 6.851562 0.140625 6.390625 -0.03125 6.078125 -0.375 C 5.773438 -0.71875 5.625 -1.21875 5.625 -1.875 C 5.625 -2.519531 5.773438 -3.007812 6.078125 -3.34375 C 6.390625 -3.6875 6.863281 -3.859375 7.5 -3.859375 C 8.101562 -3.859375 8.5625 -3.691406 8.875 -3.359375 C 9.1875 -3.023438 9.34375 -2.53125 9.34375 -1.875 Z M 8.46875 -1.875 C 8.46875 -2.425781 8.382812 -2.828125 8.21875 -3.078125 C 8.0625 -3.335938 7.8125 -3.46875 7.46875 -3.46875 C 7.132812 -3.46875 6.890625 -3.34375 6.734375 -3.09375 C 6.585938 -2.851562 6.515625 -2.445312 6.515625 -1.875 C 6.515625 -1.28125 6.59375 -0.859375 6.75 -0.609375 C 6.90625 -0.367188 7.144531 -0.25 7.46875 -0.25 C 7.8125 -0.25 8.0625 -0.378906 8.21875 -0.640625 C 8.382812 -0.898438 8.46875 -1.3125 8.46875 -1.875 Z M 8.46875 -1.875 "/></g></g></g><path fill="#ef6f9d" d="M 88.492188 161.085938 C 88.492188 161.960938 88.402344 162.828125 88.222656 163.683594 C 88.042969 164.542969 87.78125 165.375 87.429688 166.183594 C 87.078125 166.992188 86.644531 167.761719 86.136719 168.488281 C 85.625 169.214844 85.042969 169.886719 84.394531 170.507812 C 83.746094 171.125 83.039062 171.675781 82.273438 172.164062 C 81.511719 172.648438 80.703125 173.058594 79.855469 173.394531 C 79.007812 173.730469 78.132812 173.980469 77.230469 174.152344 C 76.328125 174.324219 75.417969 174.410156 74.5 174.410156 C 73.582031 174.410156 72.671875 174.324219 71.769531 174.152344 C 70.871094 173.980469 69.996094 173.730469 69.144531 173.394531 C 68.296875 173.058594 67.488281 172.648438 66.726562 172.164062 C 65.960938 171.675781 65.253906 171.125 64.605469 170.507812 C 63.957031 169.886719 63.375 169.214844 62.867188 168.488281 C 62.355469 167.761719 61.925781 166.992188 61.574219 166.183594 C 61.222656 165.375 60.957031 164.542969 60.777344 163.683594 C 60.597656 162.828125 60.507812 161.960938 60.507812 161.085938 C 60.507812 160.210938 60.597656 159.34375 60.777344 158.488281 C 60.957031 157.628906 61.222656 156.796875 61.574219 155.988281 C 61.925781 155.179688 62.355469 154.410156 62.867188 153.683594 C 63.375 152.957031 63.957031 152.285156 64.605469 151.664062 C 65.253906 151.046875 65.960938 150.496094 66.726562 150.007812 C 67.488281 149.523438 68.296875 149.113281 69.144531 148.777344 C 69.996094 148.441406 70.871094 148.191406 71.769531 148.019531 C 72.671875 147.847656 73.582031 147.761719 74.5 147.761719 C 75.417969 147.761719 76.328125 147.847656 77.230469 148.019531 C 78.132812 148.191406 79.007812 148.441406 79.855469 148.777344 C 80.703125 149.113281 81.511719 149.523438 82.273438 150.007812 C 83.039062 150.496094 83.746094 151.046875 84.394531 151.664062 C 85.042969 152.285156 85.625 152.957031 86.136719 153.683594 C 86.644531 154.410156 87.078125 155.179688 87.429688 155.988281 C 87.78125 156.796875 88.042969 157.628906 88.222656 158.488281 C 88.402344 159.34375 88.492188 160.210938 88.492188 161.085938 Z M 88.492188 161.085938 " fill-opacity="1" fill-rule="nonzero"/><path fill="#fcfaff" d="M 79.664062 154.914062 C 75.808594 154.464844 74.410156 157.984375 74.410156 157.984375 C 74.410156 157.984375 73.015625 154.46875 69.15625 154.914062 C 65.300781 155.359375 63.972656 163.035156 74.410156 167.300781 C 85.394531 162.953125 83.519531 155.359375 79.664062 154.914062 Z M 79.664062 154.914062 " fill-opacity="1" fill-rule="nonzero"/><path fill="#ef6f9d" d="M 163.605469 86.660156 C 163.605469 87.308594 163.539062 87.953125 163.40625 88.589844 C 163.269531 89.226562 163.074219 89.847656 162.8125 90.445312 C 162.550781 91.046875 162.230469 91.617188 161.851562 92.15625 C 161.472656 92.695312 161.042969 93.195312 160.558594 93.65625 C 160.078125 94.117188 159.550781 94.527344 158.984375 94.886719 C 158.417969 95.246094 157.816406 95.550781 157.1875 95.800781 C 156.558594 96.050781 155.90625 96.238281 155.238281 96.363281 C 154.570312 96.492188 153.890625 96.554688 153.210938 96.554688 C 152.527344 96.554688 151.851562 96.492188 151.183594 96.363281 C 150.511719 96.238281 149.863281 96.050781 149.230469 95.800781 C 148.601562 95.550781 148.003906 95.246094 147.433594 94.886719 C 146.867188 94.527344 146.34375 94.117188 145.859375 93.65625 C 145.378906 93.195312 144.945312 92.695312 144.566406 92.15625 C 144.1875 91.617188 143.867188 91.046875 143.605469 90.445312 C 143.347656 89.847656 143.148438 89.226562 143.015625 88.589844 C 142.882812 87.953125 142.816406 87.308594 142.816406 86.660156 C 142.816406 86.007812 142.882812 85.367188 143.015625 84.730469 C 143.148438 84.089844 143.347656 83.472656 143.605469 82.871094 C 143.867188 82.273438 144.1875 81.703125 144.566406 81.160156 C 144.945312 80.621094 145.378906 80.121094 145.859375 79.664062 C 146.34375 79.203125 146.867188 78.792969 147.433594 78.433594 C 148.003906 78.070312 148.601562 77.765625 149.230469 77.515625 C 149.863281 77.269531 150.511719 77.082031 151.183594 76.953125 C 151.851562 76.828125 152.527344 76.765625 153.210938 76.765625 C 153.890625 76.765625 154.570312 76.828125 155.238281 76.953125 C 155.90625 77.082031 156.558594 77.269531 157.1875 77.515625 C 157.816406 77.765625 158.417969 78.070312 158.984375 78.433594 C 159.550781 78.792969 160.078125 79.203125 160.558594 79.664062 C 161.042969 80.121094 161.472656 80.621094 161.851562 81.160156 C 162.230469 81.703125 162.550781 82.273438 162.8125 82.871094 C 163.074219 83.472656 163.269531 84.089844 163.40625 84.730469 C 163.539062 85.367188 163.605469 86.007812 163.605469 86.660156 Z M 163.605469 86.660156 " fill-opacity="1" fill-rule="nonzero"/><g fill="#ffffff" fill-opacity="1"><g transform="translate(149.379326, 91.040312)"><g><path d="M 3.09375 0.125 C 2.632812 0.113281 2.15625 0.0664062 1.65625 -0.015625 C 1.164062 -0.109375 0.800781 -0.207031 0.5625 -0.3125 L 0.5625 -2.265625 L 0.984375 -2.265625 L 1.203125 -1.09375 C 1.335938 -0.925781 1.59375 -0.769531 1.96875 -0.625 C 2.34375 -0.476562 2.71875 -0.394531 3.09375 -0.375 L 3.09375 -3.828125 C 2.582031 -3.992188 2.222656 -4.125 2.015625 -4.21875 C 1.816406 -4.320312 1.632812 -4.429688 1.46875 -4.546875 C 1.300781 -4.660156 1.160156 -4.796875 1.046875 -4.953125 C 0.929688 -5.117188 0.84375 -5.300781 0.78125 -5.5 C 0.71875 -5.707031 0.6875 -5.941406 0.6875 -6.203125 C 0.6875 -6.785156 0.90625 -7.257812 1.34375 -7.625 C 1.78125 -8 2.363281 -8.21875 3.09375 -8.28125 L 3.09375 -9.0625 L 3.625 -9.0625 L 3.625 -8.28125 C 4.28125 -8.257812 4.941406 -8.175781 5.609375 -8.03125 L 5.609375 -6.3125 L 5.1875 -6.3125 L 5 -7.328125 C 4.863281 -7.441406 4.664062 -7.539062 4.40625 -7.625 C 4.15625 -7.707031 3.894531 -7.753906 3.625 -7.765625 L 3.625 -4.859375 L 4.234375 -4.65625 C 4.941406 -4.40625 5.441406 -4.097656 5.734375 -3.734375 C 6.035156 -3.367188 6.1875 -2.910156 6.1875 -2.359375 C 6.1875 -1.648438 5.953125 -1.078125 5.484375 -0.640625 C 5.023438 -0.203125 4.40625 0.0390625 3.625 0.09375 L 3.625 0.953125 L 3.09375 0.953125 Z M 5.09375 -2.015625 C 5.09375 -2.398438 4.988281 -2.71875 4.78125 -2.96875 C 4.570312 -3.21875 4.1875 -3.441406 3.625 -3.640625 L 3.625 -0.40625 C 4.09375 -0.46875 4.453125 -0.632812 4.703125 -0.90625 C 4.960938 -1.175781 5.09375 -1.546875 5.09375 -2.015625 Z M 1.765625 -6.515625 C 1.765625 -6.273438 1.804688 -6.070312 1.890625 -5.90625 C 1.972656 -5.738281 2.09375 -5.59375 2.25 -5.46875 C 2.40625 -5.34375 2.6875 -5.203125 3.09375 -5.046875 L 3.09375 -7.75 C 2.664062 -7.695312 2.335938 -7.5625 2.109375 -7.34375 C 1.878906 -7.125 1.765625 -6.847656 1.765625 -6.515625 Z M 1.765625 -6.515625 "/></g></g></g><path stroke-linecap="round" transform="matrix(0.346358, 0, 0, 0.346589, 3.870839, -1.277076)" fill="none" stroke-linejoin="miter" d="M 814.536651 576.364386 L 819.341108 613.016247 " stroke="#bababa" stroke-width="0.05" stroke-opacity="0.71" stroke-miterlimit="10"/><path stroke-linecap="round" transform="matrix(0.346358, 0, 0, 0.346589, 3.870839, -1.277076)" fill="none" stroke-linejoin="miter" d="M 841.367175 431.402446 L 852.701634 479.60663 L 796.536854 470.432394 " stroke="#ffc043" stroke-width="0.05" stroke-opacity="1" stroke-miterlimit="10"/><path stroke-linecap="round" transform="matrix(0.346358, 0, 0, 0.346589, 3.870839, -1.277076)" fill="none" stroke-linejoin="miter" d="M 871.524729 515.311764 C 844.175414 512.899864 790.187302 493.796265 790.187302 493.796265 " stroke="#ffc043" stroke-width="0.05" stroke-opacity="1" stroke-miterlimit="10"/></svg>